<?xml version="1.0" encoding="utf-8"?>
<svg version="1.1" id="Capa_1" x="0px" y="0px" viewBox="18.742 26.105 133.561 52.605" style="enable-background:new 0 0 595.3 841.9;" xmlns="http://www.w3.org/2000/svg">
  <style type="text/css">
	.st0{fill:#F1BD4A;}
	.st1{fill:#9B9C9F;}
	.st2{fill:#737477;}
	.st3{fill:none;}
</style>
  <path class="st0" d="M 66.54 72.267 L 64.94 72.267 L 64.94 70.267 C 70.04 70.067 73.74 68.867 77.04 66.267 C 80.14 63.767 82.34 60.067 83.04 56.267 C 83.14 55.867 83.24 55.267 83.24 54.467 C 78.34 57.967 76.54 58.867 73.54 58.867 C 67.14 58.867 62.44 53.167 62.44 45.467 C 62.44 36.967 68.64 30.467 76.74 30.467 C 85.14 30.467 90.24 36.867 90.24 47.667 C 90.24 61.867 80.14 72.267 66.54 72.267 M 80.14 35.567 C 78.94 33.867 77.04 32.867 75.14 32.867 C 71.14 32.867 68.54 36.667 68.54 42.567 C 68.54 50.067 71.84 55.067 76.84 55.067 C 78.94 55.067 80.64 54.267 83.34 52.367 C 83.44 50.967 83.44 49.967 83.44 49.267 C 83.54 43.967 82.14 38.267 80.14 35.567"/>
  <path class="st1" d="M 59.44 55.667 C 58.04 55.667 57.84 55.767 57.84 56.267 L 57.84 56.567 L 57.84 57.167 L 57.84 60.067 L 57.94 62.367 L 57.94 64.367 L 57.94 64.967 C 57.94 66.367 58.04 67.067 58.24 67.267 L 58.44 67.467 C 58.64 67.667 58.74 67.867 58.74 68.167 C 58.74 68.667 58.44 68.967 57.74 69.267 C 56.04 69.967 52.24 71.067 48.24 71.867 C 46.44 72.267 44.44 72.467 42.34 72.467 C 30.44 72.467 22.84 64.967 22.84 53.267 C 22.84 40.767 32.94 31.867 47.14 31.867 C 51.24 31.867 55.34 32.667 58.34 34.067 L 57.64 38.067 C 57.44 39.367 57.24 39.667 56.64 39.667 C 56.04 39.667 55.74 39.367 55.74 38.667 C 55.64 36.467 51.14 34.367 46.44 34.367 C 36.54 34.367 29.94 41.367 29.94 51.867 C 29.94 62.767 35.94 70.067 44.74 70.067 C 47.14 70.067 49.14 69.567 51.24 68.667 L 51.24 67.767 C 51.24 56.967 51.04 55.667 49.04 55.667 L 48.14 55.667 L 45.64 55.667 L 45.64 53.667 L 61.54 53.667 L 61.54 55.667 L 59.44 55.667 L 59.44 55.667 Z"/>
  <path class="st2" d="M 96.24 50.867 L 97.24 50.867 L 97.24 53.767 C 97.24 54.067 97.24 54.367 97.34 54.467 C 97.44 54.767 97.74 54.867 98.14 54.867 C 98.54 54.867 98.84 54.767 98.94 54.467 C 99.04 54.367 99.04 54.067 99.04 53.767 L 99.04 50.867 L 100.04 50.867 L 100.04 53.767 C 100.04 54.267 99.94 54.667 99.84 54.967 C 99.54 55.467 99.04 55.767 98.24 55.767 C 97.44 55.767 96.84 55.467 96.64 54.967 C 96.44 54.667 96.44 54.267 96.44 53.767 L 96.44 50.867 L 96.24 50.867 Z"/>
  <polygon class="st2" points="100.94 50.867 101.94 50.867 103.84 54.067 103.84 50.867 104.74 50.867 104.74 55.567 103.74 55.567 101.84 52.167 101.84 55.567 100.94 55.567"/>
  <rect x="105.74" y="50.867" class="st2" width="1" height="4.7"/>
  <polygon class="st2" points="110.44 50.867 111.44 50.867 109.84 55.567 108.84 55.567 107.34 50.867 108.34 50.867 109.34 54.367"/>
  <polygon class="st2" points="115.44 51.667 113.04 51.667 113.04 52.667 115.24 52.667 115.24 53.467 113.04 53.467 113.04 54.667 115.64 54.667 115.64 55.567 112.04 55.567 112.04 50.867 115.44 50.867"/>
  <path class="st2" d="M 119.44 50.967 C 119.64 51.067 119.74 51.167 119.84 51.267 C 119.94 51.367 120.04 51.567 120.04 51.667 C 120.14 51.767 120.14 51.967 120.14 52.167 C 120.14 52.367 120.04 52.567 119.94 52.867 C 119.84 53.067 119.64 53.267 119.34 53.367 C 119.54 53.467 119.74 53.567 119.84 53.767 C 119.94 53.967 119.94 54.167 119.94 54.467 L 119.94 54.767 C 119.94 54.967 119.94 55.167 119.94 55.167 C 119.94 55.267 120.04 55.367 120.14 55.467 L 120.14 55.567 L 119.04 55.567 C 119.04 55.467 118.94 55.367 118.94 55.267 C 118.94 55.167 118.94 54.967 118.94 54.867 L 118.94 54.467 C 118.94 54.167 118.84 53.967 118.74 53.867 C 118.64 53.767 118.44 53.767 118.14 53.767 L 117.14 53.767 L 117.14 55.567 L 116.14 55.567 L 116.14 50.867 L 118.34 50.867 C 118.94 50.867 119.24 50.867 119.44 50.967 M 117.34 51.667 L 117.34 52.967 L 118.44 52.967 C 118.64 52.967 118.84 52.967 118.94 52.867 C 119.14 52.767 119.24 52.567 119.24 52.367 C 119.24 52.067 119.14 51.867 118.94 51.767 C 118.84 51.667 118.64 51.667 118.44 51.667 L 117.34 51.667 L 117.34 51.667 Z"/>
  <path class="st2" d="M 121.84 54.067 C 121.84 54.267 121.94 54.467 122.04 54.567 C 122.24 54.767 122.44 54.867 122.84 54.867 C 123.04 54.867 123.24 54.867 123.44 54.767 C 123.74 54.667 123.84 54.467 123.84 54.267 C 123.84 54.067 123.74 53.967 123.64 53.867 C 123.54 53.767 123.24 53.667 122.94 53.667 L 122.44 53.567 C 121.94 53.467 121.64 53.367 121.44 53.167 C 121.14 52.967 120.94 52.567 120.94 52.167 C 120.94 51.767 121.14 51.367 121.44 51.167 C 121.74 50.867 122.24 50.767 122.84 50.767 C 123.34 50.767 123.74 50.867 124.14 51.167 C 124.54 51.467 124.64 51.767 124.74 52.267 L 123.84 52.267 C 123.84 51.967 123.74 51.767 123.44 51.667 C 123.24 51.567 123.14 51.567 122.84 51.567 C 122.54 51.567 122.34 51.667 122.24 51.767 C 122.04 51.867 122.04 51.967 122.04 52.167 C 122.04 52.367 122.14 52.467 122.24 52.567 C 122.34 52.667 122.54 52.667 122.84 52.767 L 123.64 52.967 C 124.04 53.067 124.24 53.167 124.44 53.267 C 124.74 53.467 124.84 53.767 124.84 54.267 C 124.84 54.667 124.64 55.067 124.34 55.367 C 124.04 55.667 123.54 55.767 122.94 55.767 C 122.34 55.767 121.84 55.667 121.44 55.367 C 121.04 55.067 120.94 54.667 120.94 54.267 L 121.84 54.267 L 121.84 54.067 Z"/>
  <rect x="125.44" y="50.867" class="st2" width="1" height="4.7"/>
  <path class="st2" d="M 130.24 50.967 C 130.54 51.067 130.84 51.267 131.04 51.567 C 131.24 51.767 131.34 52.067 131.34 52.367 C 131.44 52.667 131.44 52.867 131.44 53.167 C 131.44 53.767 131.34 54.267 131.04 54.767 C 130.74 55.367 130.14 55.667 129.44 55.667 L 127.44 55.667 L 127.44 50.967 L 129.44 50.967 C 129.74 50.867 130.04 50.867 130.24 50.967 M 128.44 51.667 L 128.44 54.767 L 129.34 54.767 C 129.84 54.767 130.14 54.567 130.34 54.067 C 130.44 53.767 130.44 53.567 130.44 53.167 C 130.44 52.667 130.34 52.367 130.24 52.067 C 130.14 51.767 129.84 51.667 129.34 51.667 L 128.44 51.667 Z"/>
  <path class="st2" d="M 133.34 50.867 L 134.44 50.867 L 136.14 55.567 L 135.04 55.567 L 134.74 54.567 L 133.04 54.567 L 132.74 55.567 L 131.74 55.567 L 133.34 50.867 Z M 133.24 53.767 L 134.44 53.767 L 133.84 51.967 L 133.24 53.767 Z"/>
  <path class="st2" d="M 139.44 50.967 C 139.74 51.067 140.04 51.267 140.24 51.567 C 140.44 51.767 140.54 52.067 140.54 52.367 C 140.64 52.667 140.64 52.867 140.64 53.167 C 140.64 53.767 140.54 54.267 140.24 54.767 C 139.94 55.367 139.34 55.667 138.64 55.667 L 136.64 55.667 L 136.64 50.967 L 138.64 50.967 C 139.04 50.867 139.24 50.867 139.44 50.967 M 137.64 51.667 L 137.64 54.767 L 138.54 54.767 C 139.04 54.767 139.34 54.567 139.54 54.067 C 139.64 53.767 139.64 53.567 139.64 53.167 C 139.64 52.667 139.54 52.367 139.44 52.067 C 139.34 51.767 139.04 51.667 138.54 51.667 L 137.64 51.667 Z"/>
  <polygon class="st2" points="144.94 51.667 142.44 51.667 142.44 52.667 144.74 52.667 144.74 53.467 142.44 53.467 142.44 54.667 145.04 54.667 145.04 55.567 141.54 55.567 141.54 50.867 144.94 50.867"/>
  <path class="st2" d="M 146.54 54.067 C 146.54 54.267 146.64 54.467 146.74 54.567 C 146.94 54.767 147.14 54.867 147.54 54.867 C 147.74 54.867 147.94 54.867 148.14 54.767 C 148.44 54.667 148.54 54.467 148.54 54.267 C 148.54 54.067 148.44 53.967 148.34 53.867 C 148.24 53.767 147.94 53.667 147.74 53.667 L 147.24 53.567 C 146.74 53.467 146.44 53.367 146.24 53.167 C 145.94 52.967 145.74 52.567 145.74 52.167 C 145.74 51.767 145.94 51.367 146.24 51.167 C 146.54 50.867 147.04 50.767 147.64 50.767 C 148.14 50.767 148.54 50.867 148.94 51.167 C 149.34 51.467 149.44 51.767 149.54 52.267 L 148.64 52.267 C 148.64 51.967 148.54 51.767 148.24 51.667 C 148.04 51.567 147.84 51.567 147.64 51.567 C 147.34 51.567 147.14 51.667 147.04 51.767 C 146.84 51.867 146.84 51.967 146.84 52.167 C 146.84 52.367 146.94 52.467 147.04 52.567 C 147.14 52.667 147.34 52.667 147.64 52.767 L 148.44 52.967 C 148.84 53.067 149.04 53.167 149.24 53.267 C 149.54 53.467 149.64 53.767 149.64 54.267 C 149.64 54.667 149.44 55.067 149.14 55.367 C 148.84 55.667 148.34 55.767 147.74 55.767 C 147.14 55.767 146.64 55.667 146.24 55.367 C 145.84 55.067 145.74 54.667 145.74 54.267 L 146.54 54.267 L 146.54 54.067 Z"/>
  <path class="st2" d="M 99.34 61.267 C 99.04 61.467 98.64 61.567 98.14 61.567 L 97.14 61.567 L 97.14 63.267 L 96.14 63.267 L 96.14 58.567 L 98.14 58.567 C 98.64 58.567 98.94 58.667 99.24 58.967 C 99.54 59.167 99.64 59.567 99.64 60.067 C 99.74 60.667 99.64 61.067 99.34 61.267 M 98.64 59.667 C 98.54 59.567 98.34 59.467 98.14 59.467 L 97.24 59.467 L 97.24 60.867 L 98.14 60.867 C 98.34 60.867 98.54 60.767 98.64 60.667 C 98.74 60.567 98.84 60.367 98.84 60.167 C 98.74 59.867 98.74 59.767 98.64 59.667"/>
  <path class="st2" d="M 100.54 58.667 L 101.54 58.667 L 101.54 61.567 C 101.54 61.867 101.54 62.167 101.64 62.267 C 101.74 62.567 102.04 62.667 102.44 62.667 C 102.84 62.667 103.14 62.567 103.24 62.267 C 103.34 62.167 103.34 61.867 103.34 61.567 L 103.34 58.667 L 104.34 58.667 L 104.34 61.567 C 104.34 62.067 104.24 62.467 104.14 62.767 C 103.84 63.267 103.34 63.567 102.54 63.567 C 101.74 63.567 101.14 63.267 100.94 62.767 C 100.74 62.467 100.74 62.067 100.74 61.567 L 100.74 58.667 L 100.54 58.667 Z M 103.44 57.367 L 102.44 58.267 L 101.84 58.267 L 102.44 57.367 L 103.44 57.367 Z"/>
  <path class="st2" d="M 108.74 59.167 C 108.84 59.367 108.94 59.567 108.94 59.867 C 108.94 60.167 108.84 60.367 108.74 60.567 C 108.64 60.667 108.54 60.767 108.34 60.867 C 108.54 60.967 108.74 61.067 108.84 61.267 C 108.94 61.467 109.04 61.667 109.04 61.967 C 109.04 62.267 108.94 62.467 108.84 62.667 C 108.74 62.767 108.64 62.967 108.54 63.067 C 108.44 63.167 108.24 63.267 108.04 63.267 C 107.84 63.267 107.64 63.367 107.34 63.367 L 105.24 63.367 L 105.24 58.667 L 107.54 58.667 C 108.14 58.667 108.54 58.867 108.74 59.167 M 106.24 59.467 L 106.24 60.467 L 107.34 60.467 C 107.54 60.467 107.74 60.467 107.84 60.367 C 107.94 60.267 108.04 60.167 108.04 59.967 C 108.04 59.767 107.94 59.567 107.74 59.567 C 107.64 59.567 107.44 59.467 107.14 59.467 L 106.24 59.467 Z M 106.24 61.267 L 106.24 62.467 L 107.34 62.467 C 107.54 62.467 107.74 62.467 107.84 62.367 C 108.04 62.267 108.14 62.067 108.14 61.767 C 108.14 61.567 108.04 61.367 107.84 61.267 C 107.74 61.167 107.54 61.167 107.34 61.167 L 106.24 61.167 L 106.24 61.267 Z"/>
  <polygon class="st2" points="109.94 58.667 110.94 58.667 110.94 62.467 113.24 62.467 113.24 63.367 109.94 63.367"/>
  <rect x="113.94" y="58.667" class="st2" width="1" height="4.7"/>
  <path class="st2" d="M 116.34 59.167 C 116.74 58.767 117.24 58.567 117.74 58.567 C 118.54 58.567 119.04 58.867 119.44 59.367 C 119.64 59.667 119.74 59.967 119.74 60.267 L 118.74 60.267 C 118.64 60.067 118.64 59.867 118.54 59.767 C 118.34 59.567 118.14 59.467 117.74 59.467 C 117.44 59.467 117.14 59.567 116.94 59.867 C 116.74 60.167 116.64 60.567 116.64 61.067 C 116.64 61.567 116.74 61.967 116.94 62.267 C 117.14 62.567 117.44 62.667 117.74 62.667 C 118.04 62.667 118.34 62.567 118.54 62.367 C 118.64 62.267 118.74 62.067 118.74 61.867 L 119.74 61.867 C 119.64 62.367 119.44 62.767 119.14 63.067 C 118.84 63.367 118.34 63.567 117.84 63.567 C 117.14 63.567 116.64 63.367 116.24 62.967 C 115.84 62.567 115.64 61.967 115.64 61.167 C 115.64 60.167 115.94 59.567 116.34 59.167"/>
  <path class="st2" d="M 121.84 58.667 L 122.94 58.667 L 124.64 63.367 L 123.54 63.367 L 123.24 62.367 L 121.54 62.367 L 121.24 63.367 L 120.24 63.367 L 121.84 58.667 Z M 121.74 61.567 L 122.94 61.567 L 122.34 59.767 L 121.74 61.567 Z"/>
  <path class="st2" d="M 125.84 61.867 C 125.84 62.067 125.94 62.267 126.04 62.367 C 126.24 62.567 126.44 62.667 126.84 62.667 C 127.04 62.667 127.24 62.667 127.44 62.567 C 127.74 62.467 127.84 62.267 127.84 62.067 C 127.84 61.867 127.74 61.767 127.64 61.667 C 127.54 61.567 127.24 61.467 126.94 61.467 L 126.44 61.367 C 125.94 61.267 125.64 61.167 125.44 60.967 C 125.14 60.767 124.94 60.367 124.94 59.967 C 124.94 59.567 125.14 59.167 125.44 58.967 C 125.74 58.667 126.24 58.567 126.84 58.567 C 127.34 58.567 127.74 58.667 128.14 58.967 C 128.54 59.267 128.64 59.567 128.74 60.067 L 127.84 60.067 C 127.84 59.767 127.74 59.567 127.44 59.467 C 127.24 59.367 127.14 59.367 126.84 59.367 C 126.54 59.367 126.34 59.467 126.24 59.567 C 126.04 59.667 126.04 59.767 126.04 59.967 C 126.04 60.167 126.14 60.267 126.24 60.367 C 126.34 60.467 126.54 60.467 126.84 60.567 L 127.64 60.767 C 128.04 60.867 128.24 60.967 128.44 61.067 C 128.74 61.267 128.84 61.567 128.84 62.067 C 128.84 62.467 128.64 62.867 128.34 63.167 C 128.04 63.467 127.54 63.567 126.94 63.567 C 126.34 63.567 125.84 63.467 125.44 63.167 C 125.04 62.867 124.94 62.467 124.94 62.067 L 125.84 62.067 L 125.84 61.867 Z"/>
  <polygon class="st2" points="96.24 66.467 97.24 66.467 99.04 69.667 99.04 66.467 99.94 66.467 99.94 71.167 99.04 71.167 97.14 67.767 97.14 71.167 96.24 71.167"/>
  <path class="st2" d="M 104.54 70.667 C 104.14 71.067 103.64 71.167 103.04 71.167 C 102.34 71.167 101.84 70.967 101.54 70.667 C 101.04 70.267 100.84 69.567 100.84 68.767 C 100.84 67.867 101.04 67.267 101.54 66.867 C 101.94 66.467 102.44 66.367 103.04 66.367 C 103.74 66.367 104.24 66.567 104.54 66.867 C 105.04 67.267 105.24 67.967 105.24 68.767 C 105.24 69.667 105.04 70.267 104.54 70.667 M 103.94 69.967 C 104.14 69.667 104.24 69.267 104.24 68.767 C 104.24 68.267 104.14 67.867 103.94 67.567 C 103.74 67.267 103.44 67.167 103.04 67.167 C 102.64 67.167 102.34 67.267 102.14 67.567 C 101.94 67.867 101.84 68.267 101.84 68.767 C 101.84 69.267 101.94 69.667 102.14 69.967 C 102.34 70.267 102.64 70.367 103.04 70.367 C 103.44 70.467 103.74 70.267 103.94 69.967"/>
  <polygon class="st2" points="111.34 67.267 108.84 67.267 108.84 68.267 111.14 68.267 111.14 69.067 108.84 69.067 108.84 70.267 111.44 70.267 111.44 71.167 107.84 71.167 107.84 66.467 111.34 66.467"/>
  <path class="st2" d="M 112.94 69.667 C 112.94 69.867 113.04 70.067 113.14 70.167 C 113.34 70.367 113.54 70.467 113.94 70.467 C 114.14 70.467 114.34 70.467 114.54 70.367 C 114.84 70.267 114.94 70.067 114.94 69.867 C 114.94 69.667 114.84 69.567 114.74 69.467 C 114.64 69.367 114.34 69.267 114.04 69.267 L 113.54 69.167 C 113.04 69.067 112.74 68.967 112.54 68.767 C 112.24 68.567 112.04 68.167 112.04 67.767 C 112.04 67.367 112.24 66.967 112.54 66.767 C 112.84 66.467 113.34 66.367 113.94 66.367 C 114.44 66.367 114.84 66.467 115.24 66.767 C 115.64 67.067 115.74 67.367 115.84 67.867 L 114.94 67.867 C 114.94 67.567 114.84 67.367 114.54 67.267 C 114.34 67.167 114.24 67.167 113.94 67.167 C 113.64 67.167 113.44 67.267 113.34 67.367 C 113.14 67.467 113.14 67.567 113.14 67.767 C 113.14 67.967 113.24 68.067 113.34 68.167 C 113.44 68.267 113.64 68.267 113.94 68.367 L 114.74 68.567 C 115.14 68.667 115.34 68.767 115.54 68.867 C 115.84 69.067 115.94 69.367 115.94 69.867 C 115.94 70.267 115.74 70.667 115.44 70.967 C 115.14 71.267 114.64 71.367 114.04 71.367 C 113.44 71.367 112.94 71.267 112.54 70.967 C 112.14 70.667 112.04 70.267 112.04 69.867 L 112.94 69.867 L 112.94 69.667 Z"/>
  <polygon class="st2" points="120.04 66.467 120.04 67.267 118.64 67.267 118.64 71.167 117.64 71.167 117.64 67.267 116.24 67.267 116.24 66.467"/>
  <path class="st2" d="M 121.54 66.467 L 122.64 66.467 L 124.34 71.167 L 123.24 71.167 L 122.94 70.167 L 121.24 70.167 L 120.94 71.167 L 119.94 71.167 L 121.54 66.467 Z M 121.44 69.367 L 122.64 69.367 L 122.04 67.567 L 121.44 69.367 Z"/>
  <polygon class="st2" points="127.84 66.467 127.84 67.267 126.44 67.267 126.44 71.167 125.44 71.167 125.44 67.267 124.04 67.267 124.04 66.467"/>
  <path class="st2" d="M 129.34 66.467 L 130.44 66.467 L 132.14 71.167 L 131.04 71.167 L 130.74 70.167 L 129.04 70.167 L 128.74 71.167 L 127.74 71.167 L 129.34 66.467 Z M 129.24 69.367 L 130.44 69.367 L 129.84 67.567 L 129.24 69.367 Z"/>
  <polygon class="st2" points="132.74 66.467 133.64 66.467 133.64 70.267 136.04 70.267 136.04 71.167 132.74 71.167"/>
  <polygon class="st2" points="140.14 67.267 137.64 67.267 137.64 68.267 139.94 68.267 139.94 69.067 137.64 69.067 137.64 70.267 140.24 70.267 140.24 71.167 136.74 71.167 136.74 66.467 140.14 66.467"/>
  <path class="st2" d="M 141.74 69.667 C 141.74 69.867 141.84 70.067 141.94 70.167 C 142.14 70.367 142.34 70.467 142.74 70.467 C 142.94 70.467 143.14 70.467 143.34 70.367 C 143.64 70.267 143.74 70.067 143.74 69.867 C 143.74 69.667 143.64 69.567 143.54 69.467 C 143.44 69.367 143.14 69.267 142.94 69.267 L 142.44 69.167 C 141.94 69.067 141.64 68.967 141.44 68.767 C 141.14 68.567 140.94 68.167 140.94 67.767 C 140.94 67.367 141.14 66.967 141.44 66.767 C 141.74 66.467 142.24 66.367 142.84 66.367 C 143.34 66.367 143.74 66.467 144.14 66.767 C 144.54 67.067 144.64 67.367 144.74 67.867 L 143.84 67.867 C 143.84 67.567 143.74 67.367 143.44 67.267 C 143.24 67.167 143.14 67.167 142.84 67.167 C 142.54 67.167 142.34 67.267 142.24 67.367 C 142.04 67.467 142.04 67.567 142.04 67.767 C 142.04 67.967 142.14 68.067 142.24 68.167 C 142.34 68.267 142.54 68.267 142.84 68.367 L 143.64 68.567 C 144.04 68.667 144.24 68.767 144.44 68.867 C 144.74 69.067 144.84 69.367 144.84 69.867 C 144.84 70.267 144.64 70.667 144.34 70.967 C 144.04 71.267 143.54 71.367 142.94 71.367 C 142.34 71.367 141.84 71.267 141.44 70.967 C 141.04 70.667 140.94 70.267 140.94 69.867 L 141.74 69.867 L 141.74 69.667 Z"/>
  <rect x="22.84" y="30.667" class="st3" width="126.7" height="41.8"/>
</svg>