<?xml version="1.0" encoding="UTF-8"?><svg id="Capa_2" xmlns="http://www.w3.org/2000/svg" viewBox="0 0 406.83 88.59"><defs><style>.cls-1,.cls-2{fill:#003da6;}.cls-3{fill:#605f5f;}.cls-4{fill:#606161;}.cls-2,.cls-5{fill-rule:evenodd;}.cls-5{fill:#009845;}</style></defs><g id="Layer_1"><g><g><path class="cls-3" d="M13.15,52.68c-.1,.06-.22,.1-.36,.15-.14,.04-.3,.09-.47,.11-.17,.04-.36,.06-.54,.06-.4,0-.77-.07-1.12-.2-.34-.14-.63-.34-.88-.61-.24-.27-.43-.6-.58-1-.14-.39-.21-.85-.21-1.34s.07-.96,.21-1.35c.15-.4,.34-.73,.59-1,.25-.27,.55-.48,.9-.62,.36-.15,.74-.22,1.16-.22,.34,0,.65,.04,.92,.12,.28,.08,.53,.18,.74,.29-.04,.09-.08,.2-.1,.34-.02,.14-.04,.26-.06,.35l-.05,.02c-.05-.06-.12-.15-.22-.24-.09-.09-.2-.17-.32-.26-.12-.08-.26-.15-.41-.21-.16-.06-.32-.09-.51-.09-.29,0-.57,.05-.83,.17-.26,.11-.48,.28-.67,.52-.19,.23-.34,.53-.45,.88-.11,.36-.16,.8-.16,1.28s.05,.91,.16,1.28c.1,.36,.26,.66,.45,.88,.19,.24,.41,.41,.67,.52,.26,.12,.54,.17,.83,.17,.19,0,.36-.03,.51-.09,.15-.05,.29-.12,.43-.19,.12-.07,.24-.16,.35-.24,.1-.09,.19-.16,.26-.22l.03,.04-.07,.52c-.05,.05-.12,.1-.22,.16"/><path class="cls-3" d="M14.19,49.77c.11-.28,.25-.51,.43-.69,.18-.17,.38-.3,.6-.38,.22-.08,.44-.12,.66-.12s.44,.04,.67,.12c.22,.09,.41,.21,.59,.38,.18,.17,.32,.41,.43,.69,.11,.28,.17,.62,.17,1.02s-.06,.75-.17,1.03c-.11,.28-.26,.51-.43,.68-.18,.18-.37,.3-.59,.37-.23,.07-.44,.1-.67,.1s-.44-.04-.66-.1c-.22-.07-.42-.19-.6-.37-.18-.17-.32-.4-.43-.68-.11-.28-.16-.62-.16-1.03s.05-.74,.16-1.02m.57,1.75c.04,.23,.1,.43,.19,.61,.09,.18,.21,.33,.36,.43,.16,.11,.34,.16,.57,.16s.41-.05,.57-.16c.15-.11,.27-.25,.36-.43,.1-.18,.16-.38,.2-.61,.04-.23,.06-.47,.06-.73s-.02-.49-.06-.72c-.04-.23-.1-.43-.2-.61-.09-.19-.21-.33-.36-.43-.16-.11-.34-.16-.57-.16s-.41,.05-.57,.16c-.15,.1-.28,.25-.36,.43-.09,.18-.15,.38-.19,.61-.04,.23-.06,.47-.06,.72s.02,.49,.06,.73"/><path class="cls-3" d="M18.58,49.49c0-.29-.02-.57-.05-.83,.14,.03,.26,.04,.35,.04,.04,0,.09,0,.14-.01,.05,0,.1-.02,.17-.03-.02,.24-.02,.48-.02,.72h.02c.27-.54,.65-.81,1.13-.81,.13,0,.25,.03,.37,.06,.13,.05,.24,.11,.34,.19,.09,.07,.18,.17,.25,.28,.07,.12,.12,.23,.15,.36h.01c.13-.29,.29-.5,.5-.66,.21-.16,.45-.23,.73-.23,.16,0,.32,.03,.47,.08,.14,.05,.26,.14,.37,.25,.1,.12,.18,.26,.24,.44,.06,.17,.09,.38,.09,.63,0,.1,0,.21,0,.33,0,.12-.01,.26-.02,.41,0,.16,0,.34-.02,.54,0,.2,0,.43,0,.69,0,.15,0,.31,0,.46,0,.15,.01,.31,.02,.48-.05-.02-.12-.02-.17-.02h-.33c-.06,0-.11,0-.17,.02,.02-.15,.03-.45,.05-.9,.02-.45,.03-1.07,.03-1.88,0-.15-.02-.29-.04-.41-.03-.12-.07-.24-.14-.34-.06-.1-.14-.17-.24-.23-.1-.05-.23-.08-.38-.08-.18,0-.34,.05-.47,.12-.13,.08-.23,.18-.3,.29-.04,.07-.07,.13-.09,.19-.03,.07-.05,.17-.06,.29-.01,.14-.02,.33-.03,.57,0,.23,0,.57,0,.99,0,.26,0,.48,.01,.69,.01,.21,.02,.44,.03,.69-.12-.02-.23-.02-.33-.02s-.22,0-.33,.02c.02-.33,.04-.66,.05-1,0-.34,.02-.67,.02-1,0-.28,0-.5,0-.66,0-.16,0-.28-.02-.37-.02-.1-.03-.17-.05-.23-.02-.05-.04-.12-.07-.19-.05-.11-.14-.21-.26-.29-.12-.08-.24-.12-.37-.12-.33,0-.58,.13-.73,.38-.16,.26-.24,.61-.24,1.08v.75c0,.27,0,.55,.01,.84s.03,.56,.05,.8c-.12-.02-.23-.02-.35-.02s-.22,0-.35,.02c.03-.24,.05-.5,.05-.8,0-.29,.01-.57,.01-.84v-.93c0-.27,0-.54-.01-.83"/><path class="cls-3" d="M25.14,46.8c.08-.09,.17-.14,.28-.14s.2,.05,.27,.14c.08,.09,.12,.2,.12,.32s-.04,.23-.12,.32c-.07,.09-.16,.14-.27,.14s-.2-.05-.28-.14c-.08-.09-.11-.19-.11-.32s.04-.23,.11-.32m-.02,2.69c0-.29-.02-.57-.05-.83,.14,.03,.26,.04,.35,.04s.2-.01,.35-.04c-.03,.26-.04,.53-.05,.83,0,.29-.01,.57-.01,.83v.93c0,.27,0,.55,.01,.84,0,.29,.02,.56,.05,.8-.12-.02-.23-.02-.35-.02s-.23,0-.35,.02c.03-.24,.04-.5,.05-.8,0-.29,.01-.57,.01-.84v-.93c0-.27,0-.54-.01-.83"/><path class="cls-3" d="M27.14,52.26c.05,.07,.11,.14,.19,.2,.07,.06,.16,.11,.25,.16,.1,.04,.2,.06,.3,.06,.1,0,.19-.02,.28-.05,.09-.03,.16-.09,.23-.15,.07-.07,.12-.14,.16-.25,.05-.1,.07-.21,.07-.35,0-.18-.04-.32-.14-.42-.09-.1-.2-.18-.33-.24-.14-.06-.28-.12-.44-.17-.16-.04-.3-.11-.43-.2-.13-.09-.24-.2-.33-.34-.09-.14-.14-.34-.14-.59,0-.19,.03-.36,.08-.53,.06-.17,.15-.31,.25-.43,.1-.12,.24-.21,.4-.28,.16-.06,.34-.1,.54-.1,.19,0,.35,.03,.48,.09,.13,.06,.26,.12,.37,.16-.04,.09-.08,.2-.11,.33-.04,.13-.06,.23-.07,.3h-.09c-.04-.14-.12-.27-.24-.38-.12-.12-.26-.17-.43-.17-.08,0-.15,.02-.23,.04-.08,.03-.15,.08-.21,.14-.05,.05-.11,.13-.15,.23-.04,.1-.06,.21-.06,.33,0,.19,.05,.34,.14,.44,.09,.1,.2,.18,.33,.24,.13,.06,.27,.11,.43,.16,.16,.05,.3,.1,.43,.19,.13,.07,.24,.19,.33,.33,.09,.14,.14,.34,.14,.59,0,.17-.03,.33-.1,.5-.06,.17-.15,.32-.28,.45-.11,.14-.26,.24-.43,.31-.16,.07-.36,.11-.57,.11-.23,0-.43-.03-.59-.09-.16-.05-.29-.11-.4-.18,.03-.07,.07-.18,.1-.31,.03-.14,.04-.24,.04-.34h.1c.02,.06,.06,.12,.12,.2"/><path class="cls-3" d="M30.24,46.8c.07-.09,.17-.14,.27-.14,.11,0,.2,.05,.28,.14,.08,.09,.12,.2,.12,.32s-.04,.23-.12,.32c-.07,.09-.17,.14-.28,.14-.1,0-.2-.05-.27-.14-.09-.09-.12-.19-.12-.32s.03-.23,.12-.32m-.02,2.69c0-.29-.02-.57-.05-.83,.14,.03,.26,.04,.34,.04,.09,0,.21-.01,.35-.04-.02,.26-.04,.53-.05,.83,0,.29,0,.57,0,.83v.93c0,.27,0,.55,0,.84,0,.29,.03,.56,.05,.8-.12-.02-.23-.02-.35-.02-.1,0-.22,0-.34,.02,.03-.24,.04-.5,.05-.8,0-.29,0-.57,0-.84v-.93c0-.27,0-.54,0-.83"/><path class="cls-3" d="M31.99,49.77c.11-.28,.26-.51,.43-.69,.19-.17,.38-.3,.6-.38,.22-.08,.44-.12,.66-.12s.45,.04,.67,.12c.21,.08,.41,.21,.59,.38,.18,.17,.32,.41,.43,.69,.11,.28,.16,.62,.16,1.03s-.05,.75-.16,1.02c-.11,.28-.25,.51-.43,.68-.17,.18-.38,.3-.59,.37-.22,.07-.45,.1-.67,.1s-.44-.04-.66-.1c-.23-.07-.42-.19-.6-.37-.17-.17-.32-.4-.43-.68-.1-.28-.17-.62-.17-1.02s.06-.75,.17-1.03m.57,1.75c.03,.23,.1,.43,.19,.61,.09,.18,.21,.33,.36,.43,.16,.11,.35,.16,.57,.16s.41-.05,.56-.16c.16-.11,.28-.25,.36-.43,.1-.18,.16-.38,.2-.61,.03-.23,.06-.47,.06-.72s-.02-.49-.06-.72c-.04-.23-.1-.43-.2-.61-.09-.19-.21-.33-.36-.43-.15-.11-.34-.16-.56-.16s-.41,.05-.57,.16c-.15,.1-.27,.24-.36,.43-.09,.18-.16,.38-.19,.61-.04,.23-.06,.47-.06,.72s.02,.49,.06,.72m2.07-5.15c.05,0,.1,.02,.17,.07,.06,.05,.08,.12,.08,.21,0,.11-.02,.19-.09,.26-.07,.06-.12,.12-.19,.16l-1.12,.83h-.32l1.12-1.32c.13-.14,.24-.21,.35-.21"/><path class="cls-3" d="M38.65,49.39c-.15-.23-.35-.35-.61-.35-.36,0-.62,.13-.78,.38-.17,.25-.25,.61-.25,1.08v.75c0,.27,0,.55,.01,.84,.01,.29,.03,.56,.05,.8-.12-.02-.23-.02-.34-.02s-.23,0-.35,.02c.03-.23,.04-.5,.05-.8s.01-.57,.01-.84v-.93c0-.26,0-.54-.01-.83s-.02-.57-.05-.83c.15,.03,.26,.04,.35,.04,.04,0,.08,0,.13-.01,.05,0,.11-.02,.17-.03-.02,.24-.03,.48-.03,.72h.02c.14-.26,.31-.45,.51-.59,.2-.15,.44-.22,.71-.22,.15,0,.29,.03,.43,.07s.27,.13,.39,.24c.12,.12,.21,.28,.28,.48,.07,.19,.12,.45,.12,.75,0,.26-.01,.53-.02,.79,0,.27-.02,.55-.02,.86v.58c0,.09,0,.18,0,.28,0,.09,0,.18,0,.26-.1-.02-.21-.02-.32-.02s-.22,0-.32,.02c.01-.31,.02-.62,.04-.95,.01-.32,.02-.66,.02-1v-.55c0-.44-.07-.78-.22-1"/><path class="cls-3" d="M45.34,50.59c-.66-.83-1.33-1.65-1.99-2.47,0,.17-.01,.39-.02,.67,0,.28,0,.66,0,1.13,0,.13,0,.28,0,.47,0,.19,0,.38,0,.58,0,.2,0,.4,.01,.62,0,.21,.01,.4,.02,.57,0,.18,.01,.34,.02,.47,0,.14,0,.22,.02,.28-.08-.02-.17-.02-.26-.02-.1,0-.2,0-.29,.02,0-.06,.02-.17,.03-.33,.02-.16,.03-.36,.04-.58,0-.21,.02-.46,.03-.72,.01-.26,.02-.52,.03-.78,0-.26,.01-.52,.02-.77,0-.24,0-.47,0-.66,0-.57,0-1.06,0-1.47,0-.41,0-.71-.02-.92h.12c.31,.4,.64,.81,1,1.26,.35,.45,.71,.89,1.05,1.33,.35,.43,.68,.85,.99,1.24,.32,.38,.59,.72,.82,.99v-1.21c0-.62,0-1.22-.01-1.81,0-.6-.02-1.15-.05-1.67,.1,.02,.18,.04,.26,.04,.06,0,.14-.02,.24-.04-.01,.13-.02,.33-.04,.59-.01,.25-.02,.54-.03,.83-.01,.3-.03,.59-.04,.87-.02,.29-.02,.52-.02,.69v1.16c0,.22,0,.44,.02,.67,0,.22,0,.43,0,.61,0,.2,0,.36,0,.51v.29h-.11c-.59-.79-1.21-1.59-1.87-2.42"/><path class="cls-3" d="M49.38,48.69c.2-.07,.39-.11,.6-.11,.18,0,.35,.03,.5,.09,.15,.07,.28,.15,.4,.26,.1,.12,.19,.26,.25,.43,.07,.16,.1,.34,.1,.53,0,.34,0,.67-.01,1.01-.01,.34-.02,.69-.02,1.07,0,.07,0,.14,0,.22,0,.09,.01,.15,.03,.22,.02,.06,.05,.11,.09,.16,.04,.04,.1,.06,.17,.06h.07s.05-.02,.09-.03v.19c-.06,.03-.13,.06-.21,.07-.08,.02-.18,.03-.28,.03-.16,0-.29-.05-.38-.15-.08-.1-.14-.23-.15-.38-.19,.21-.36,.37-.54,.47-.18,.1-.4,.15-.65,.15-.14,0-.26-.02-.38-.06-.12-.05-.23-.11-.33-.21-.1-.09-.17-.21-.23-.34-.05-.13-.09-.29-.09-.46,0-.36,.09-.63,.29-.83,.19-.19,.45-.33,.79-.4,.28-.05,.48-.09,.64-.13,.15-.03,.27-.07,.34-.12,.07-.04,.11-.09,.13-.15,.02-.06,.02-.13,.02-.22,0-.15,0-.29-.04-.43-.03-.13-.08-.25-.15-.35-.07-.1-.15-.18-.25-.24-.11-.07-.24-.1-.4-.1-.2,0-.39,.05-.56,.16-.18,.11-.31,.26-.4,.44h-.08v-.46c.23-.21,.44-.34,.63-.41m.96,2.08c-.12,.02-.24,.05-.35,.08-.11,.03-.23,.06-.35,.1-.11,.04-.21,.1-.3,.17-.09,.07-.16,.16-.21,.26-.05,.11-.08,.25-.08,.42,0,.27,.07,.48,.2,.63,.14,.14,.29,.21,.46,.21,.19,0,.36-.06,.52-.18,.16-.13,.28-.28,.37-.44l.02-1.33c-.08,.03-.18,.06-.29,.08"/><path class="cls-3" d="M52.4,49.8c.11-.28,.26-.51,.44-.69,.18-.18,.39-.31,.63-.4,.22-.09,.47-.13,.71-.13,.28,0,.54,.04,.75,.12,.23,.08,.38,.17,.48,.27-.03,.1-.07,.19-.09,.28-.03,.1-.05,.21-.07,.31h-.06c-.04-.07-.09-.16-.15-.23-.06-.08-.13-.15-.22-.22-.08-.07-.17-.12-.28-.17-.1-.04-.21-.06-.33-.06-.23,0-.43,.05-.59,.15-.17,.09-.31,.23-.41,.41-.1,.17-.18,.37-.23,.6-.04,.23-.07,.5-.07,.76,0,.61,.11,1.07,.34,1.38,.22,.31,.55,.47,.99,.47,.09,0,.2-.01,.31-.05,.11-.03,.21-.08,.31-.13,.1-.06,.2-.13,.29-.2,.09-.08,.17-.16,.24-.25l.03,.02c-.02,.14-.04,.29-.04,.43-.16,.14-.35,.27-.58,.36-.22,.1-.46,.15-.7,.15-.22,0-.44-.03-.66-.11-.22-.08-.42-.2-.61-.38-.17-.17-.32-.4-.42-.67-.11-.28-.17-.62-.17-1.02s.06-.72,.17-1"/><path class="cls-3" d="M56.52,46.8c.07-.09,.16-.14,.28-.14,.1,0,.19,.05,.27,.14,.07,.09,.12,.2,.12,.32s-.05,.23-.12,.32c-.07,.09-.16,.14-.27,.14-.12,0-.2-.05-.28-.14-.08-.09-.12-.19-.12-.32s.04-.23,.12-.32m-.02,2.69c0-.29-.02-.57-.05-.83,.14,.03,.25,.04,.35,.04s.2-.01,.34-.04c-.03,.26-.04,.53-.05,.83-.01,.29-.01,.57-.01,.83v.93c0,.27,0,.55,.01,.84,0,.29,.02,.56,.05,.8-.12-.02-.23-.02-.34-.02-.12,0-.23,0-.35,.02,.02-.24,.04-.5,.05-.8,0-.29,.01-.57,.01-.84v-.93c0-.27,0-.54-.01-.83"/><path class="cls-3" d="M58.28,49.77c.12-.28,.26-.51,.44-.69,.17-.17,.38-.3,.59-.38,.23-.08,.44-.12,.66-.12,.23,0,.45,.04,.67,.12,.22,.09,.41,.21,.6,.38,.17,.17,.32,.41,.43,.69,.11,.28,.16,.62,.16,1.02s-.05,.75-.16,1.03c-.11,.28-.26,.51-.43,.68-.19,.18-.38,.3-.6,.37-.22,.07-.43,.1-.67,.1-.22,0-.43-.04-.66-.1-.22-.07-.42-.19-.59-.37-.18-.17-.32-.4-.44-.68-.1-.28-.16-.62-.16-1.03s.05-.74,.16-1.02m.57,1.75c.04,.23,.1,.43,.2,.61,.09,.18,.21,.33,.37,.43,.15,.11,.34,.16,.56,.16,.23,0,.41-.05,.57-.16,.15-.11,.28-.25,.36-.43,.1-.18,.16-.38,.2-.61,.04-.23,.07-.47,.07-.73s-.02-.49-.07-.72c-.04-.23-.1-.43-.2-.61-.08-.19-.21-.33-.36-.43-.16-.11-.33-.16-.57-.16s-.41,.05-.56,.16c-.16,.1-.28,.25-.37,.43-.09,.18-.16,.38-.2,.61-.04,.23-.06,.47-.06,.72s.02,.49,.06,.73"/><path class="cls-3" d="M64.93,49.39c-.15-.23-.35-.35-.61-.35-.36,0-.62,.13-.78,.38-.16,.25-.25,.61-.25,1.08v.75c0,.27,0,.55,.01,.84s.03,.56,.05,.8c-.12-.02-.24-.02-.35-.02s-.23,0-.34,.02c.02-.23,.04-.5,.05-.8,0-.29,.01-.57,.01-.84v-.93c0-.26,0-.54-.01-.83-.01-.29-.03-.57-.05-.83,.14,.03,.26,.04,.34,.04,.04,0,.08,0,.13-.01,.05,0,.1-.02,.17-.03-.02,.24-.03,.48-.03,.72h.02c.14-.26,.31-.45,.51-.59,.2-.15,.44-.22,.71-.22,.15,0,.29,.03,.43,.07,.15,.05,.28,.13,.39,.24,.12,.12,.21,.28,.29,.48,.07,.19,.11,.45,.11,.75,0,.26,0,.53-.02,.79-.01,.27-.01,.55-.01,.86v.86c0,.09,.01,.18,.01,.26-.1-.02-.21-.02-.33-.02-.1,0-.21,0-.32,.02,.02-.31,.03-.62,.04-.95,.01-.32,.02-.66,.02-1v-.55c0-.44-.07-.78-.22-1"/><path class="cls-3" d="M67.62,48.69c.19-.07,.38-.11,.59-.11,.19,0,.36,.03,.51,.09,.16,.07,.28,.15,.39,.26,.11,.12,.19,.26,.25,.43,.06,.16,.1,.34,.1,.53,0,.34,0,.67-.02,1.01-.01,.34-.02,.69-.02,1.07,0,.07,0,.14,0,.22,0,.09,.02,.15,.03,.22,.02,.06,.05,.11,.1,.16,.04,.04,.09,.06,.17,.06h.07s.06-.02,.08-.03v.19c-.06,.03-.12,.06-.21,.07-.08,.02-.18,.03-.28,.03-.16,0-.28-.05-.37-.15-.08-.1-.14-.23-.16-.38-.18,.21-.36,.37-.54,.47-.17,.1-.4,.15-.66,.15-.13,0-.25-.02-.37-.06-.13-.05-.24-.11-.33-.21-.09-.09-.17-.21-.22-.34-.05-.13-.09-.29-.09-.46,0-.36,.1-.63,.28-.83,.19-.19,.45-.33,.78-.4,.28-.05,.49-.09,.64-.13,.16-.03,.28-.07,.34-.12,.08-.04,.12-.09,.14-.15,.02-.06,.03-.13,.03-.22,0-.15-.02-.29-.05-.43-.03-.13-.08-.25-.15-.35-.06-.1-.16-.18-.26-.24-.11-.07-.24-.1-.39-.1-.2,0-.39,.05-.57,.16-.18,.11-.31,.26-.4,.44h-.08v-.46c.23-.21,.44-.34,.64-.41m.95,2.08c-.11,.02-.24,.05-.35,.08-.11,.03-.23,.06-.34,.1-.11,.04-.22,.1-.31,.17-.08,.07-.16,.16-.21,.26-.05,.11-.08,.25-.08,.42,0,.27,.07,.48,.21,.63,.13,.14,.28,.21,.45,.21,.19,0,.37-.06,.54-.18,.16-.13,.28-.28,.36-.44l.03-1.33c-.09,.03-.19,.06-.3,.08"/><path class="cls-3" d="M70.92,48.09c0-.24,0-.47-.01-.7,0-.23,0-.45-.02-.67,0-.21-.01-.38-.02-.53,.14,.03,.26,.04,.34,.04s.2-.01,.35-.04c-.02,.15-.02,.33-.03,.53,0,.22-.01,.43-.02,.67,0,.23-.01,.46-.01,.7,0,.24,0,.45,0,.66v1.61c0,.21,0,.42,0,.66,0,.23,0,.47,.01,.71,0,.23,.01,.45,.02,.65,0,.21,.02,.38,.03,.52-.12-.02-.23-.02-.35-.02s-.22,0-.34,.02c.01-.14,.02-.31,.02-.52,.01-.21,.02-.42,.02-.65,0-.24,0-.47,.01-.71,0-.24,0-.45,0-.66v-1.61c0-.21,0-.42,0-.66"/><path class="cls-3" d="M17.7,59.75c-.04,.1-.1,.2-.17,.31-.07,.11-.16,.21-.26,.3-.1,.1-.23,.17-.37,.23-.14,.06-.31,.09-.5,.09s-.38-.04-.56-.12c-.19-.07-.35-.19-.5-.38-.14-.17-.26-.4-.35-.67-.09-.27-.13-.61-.13-.99s.05-.71,.14-.99c.09-.28,.22-.51,.38-.7,.16-.19,.33-.33,.52-.42,.2-.09,.39-.13,.59-.13,.56,0,.95,.29,1.18,.88h.02v-.87c0-.22,0-.45,0-.68,0-.23,0-.45,0-.65,0-.21,0-.41-.01-.59,0-.18,0-.34-.01-.48,.07,.01,.12,.02,.17,.03,.06,.01,.12,.02,.17,.02s.11,0,.16-.02c.05,0,.12-.02,.18-.03-.01,.19-.03,.47-.04,.82-.01,.36-.02,.76-.02,1.19-.01,.43-.02,.88-.02,1.33,0,.45,0,.87,0,1.25,0,.41,0,.78,0,1.11,0,.33,0,.66,.02,1-.11-.02-.2-.02-.3-.02-.09,0-.19,0-.29,.02l.02-.84h-.01Zm-2.07-.29c.07,.23,.15,.42,.24,.56,.1,.14,.22,.24,.34,.29,.13,.05,.26,.08,.38,.08,.2,0,.37-.05,.52-.18,.14-.11,.25-.26,.35-.45,.1-.19,.17-.4,.21-.64,.04-.24,.07-.48,.07-.71,0-.56-.09-1-.29-1.3-.19-.31-.46-.45-.83-.45-.19,0-.35,.05-.48,.15-.14,.1-.25,.24-.33,.41-.09,.17-.16,.38-.2,.61-.04,.24-.06,.49-.06,.75,0,.36,.03,.65,.09,.88"/><path class="cls-3" d="M19.5,56.9c.29-.41,.73-.62,1.3-.62,.27,0,.5,.04,.7,.14,.19,.1,.36,.23,.49,.39,.14,.17,.23,.36,.29,.58,.06,.22,.09,.45,.09,.7,0,.06,0,.12,0,.17,0,.06,0,.11-.02,.17-.27,0-.55-.02-.81-.02-.27,0-.54,0-.82,0-.17,0-.33,0-.5,0-.17,0-.33,.02-.5,.02,0,.03,0,.08,0,.14v.11c0,.24,.04,.45,.09,.66,.06,.2,.14,.37,.25,.52,.12,.14,.25,.26,.41,.34,.16,.09,.35,.14,.56,.14,.1,0,.21-.01,.31-.05,.11-.03,.21-.07,.31-.14,.1-.05,.19-.12,.28-.2,.09-.08,.17-.16,.24-.24l.03,.02-.04,.44c-.15,.14-.35,.26-.57,.36-.23,.1-.47,.16-.71,.16-.28,0-.53-.05-.75-.15-.22-.09-.42-.24-.59-.43-.16-.18-.29-.4-.38-.66-.09-.25-.13-.53-.13-.83,0-.73,.15-1.31,.44-1.72m.84-.18c-.13,.1-.24,.22-.32,.38-.09,.16-.15,.32-.19,.5-.05,.18-.07,.35-.08,.51,.16,.01,.32,.02,.49,.02,.17,0,.34,0,.5,0,.17,0,.34,0,.51,0,.17,0,.34-.01,.5-.02,0-.16-.01-.33-.03-.5-.02-.18-.06-.35-.13-.5-.07-.15-.16-.28-.29-.38-.12-.1-.29-.15-.48-.15-.19,0-.34,.05-.47,.15"/><path class="cls-3" d="M29.39,60.59c-.07-.02-.13-.02-.2-.02h-.4c-.07,0-.13,0-.2,.02-.04-.14-.08-.29-.15-.49-.06-.19-.13-.39-.2-.61-.07-.21-.15-.43-.23-.64-.08-.22-.15-.43-.21-.62-.17,0-.33,0-.5,0-.17,0-.33,0-.5,0-.16,0-.31,0-.46,0-.16,0-.31,0-.47,0-.16,.46-.31,.9-.44,1.32-.14,.42-.24,.77-.3,1.03-.09-.02-.18-.02-.28-.02s-.2,0-.29,.02c.41-1.03,.81-2.06,1.21-3.1,.39-1.02,.78-2.06,1.18-3.13h.15c.12,.35,.25,.72,.4,1.12,.14,.4,.28,.8,.43,1.21,.15,.41,.3,.82,.45,1.22,.15,.41,.29,.78,.41,1.12,.13,.35,.24,.66,.35,.93,.1,.27,.19,.48,.25,.62m-3.37-2.76c.13,0,.27,0,.41,.01,.15,0,.28,0,.41,0,.14,0,.28,0,.42,0,.14,0,.29,0,.43-.01l-.85-2.26-.83,2.26Z"/><path class="cls-3" d="M30.01,57.5c.11-.28,.26-.5,.44-.69,.17-.18,.38-.31,.62-.4,.23-.09,.48-.12,.72-.12,.28,0,.53,.03,.75,.12,.22,.08,.38,.17,.47,.27-.04,.09-.07,.18-.09,.28-.03,.1-.05,.2-.08,.3h-.05c-.04-.07-.09-.15-.14-.23-.07-.09-.14-.16-.23-.22-.08-.07-.18-.12-.28-.17-.11-.04-.22-.06-.34-.06-.23,0-.42,.04-.59,.14-.17,.1-.31,.23-.4,.41-.1,.17-.19,.37-.23,.61-.05,.24-.07,.49-.07,.76,0,.61,.11,1.07,.34,1.38,.23,.31,.55,.47,.98,.47,.1,0,.21-.01,.32-.05,.1-.03,.21-.07,.31-.14,.1-.05,.2-.12,.28-.2,.09-.08,.17-.16,.23-.25l.04,.02c-.03,.14-.04,.28-.04,.43-.16,.15-.34,.27-.57,.36-.22,.1-.46,.16-.71,.16-.22,0-.44-.03-.66-.11-.22-.07-.43-.19-.6-.37-.18-.17-.33-.4-.43-.68-.11-.28-.17-.62-.17-1.02,0-.38,.06-.71,.17-1"/><path class="cls-3" d="M35.51,57c-.08-.03-.15-.04-.23-.04-.12,0-.22,.03-.33,.1-.09,.06-.17,.15-.24,.26-.07,.11-.12,.24-.16,.4-.03,.15-.05,.31-.05,.49v.97c0,.39,0,.7,0,.91,0,.22,.01,.39,.03,.51-.1-.02-.21-.02-.31-.02-.11,0-.22,0-.32,.02,.02-.19,.03-.47,.03-.82,0-.35,0-.77,0-1.28v-.28c0-.23,0-.5,0-.8,0-.3-.01-.65-.03-1.04,.06,.02,.11,.02,.16,.03,.05,0,.1,.01,.16,.01,.05,0,.09,0,.15-.01,.05-.01,.1-.02,.16-.03-.02,.21-.03,.39-.03,.51,0,.12,0,.24,0,.36h.02c.3-.64,.64-.95,1-.95,.05,0,.09,0,.12,0,.03,0,.07,.02,.12,.05-.02,.08-.04,.18-.04,.33-.01,.14-.01,.28-.01,.4l-.06,.04s-.07-.06-.14-.09"/><path class="cls-3" d="M36.59,56.9c.29-.41,.73-.62,1.3-.62,.28,0,.51,.04,.7,.14,.2,.1,.36,.23,.5,.39,.12,.17,.22,.36,.28,.58,.07,.22,.1,.45,.1,.7,0,.06,0,.12,0,.17,0,.06,0,.11-.01,.17-.27,0-.54-.02-.81-.02-.27,0-.54,0-.81,0-.16,0-.33,0-.5,0-.17,0-.33,.02-.5,.02-.01,.03-.01,.08-.01,.14v.11c0,.24,.03,.45,.09,.66,.06,.2,.14,.37,.25,.52,.11,.14,.25,.26,.41,.34,.17,.09,.35,.14,.57,.14,.1,0,.2-.01,.31-.05,.1-.03,.21-.07,.31-.14,.1-.05,.19-.12,.29-.2,.09-.08,.16-.16,.23-.24l.04,.02-.04,.44c-.15,.14-.34,.26-.57,.36-.22,.1-.46,.16-.71,.16-.27,0-.52-.05-.76-.15-.22-.09-.41-.24-.58-.43-.17-.18-.29-.4-.38-.66-.09-.25-.14-.53-.14-.83,0-.73,.15-1.31,.45-1.72m.83-.18c-.12,.1-.24,.22-.32,.38-.08,.16-.14,.32-.18,.5-.05,.18-.07,.35-.08,.51,.16,.01,.32,.02,.49,.02,.17,0,.33,0,.5,0s.34,0,.51,0c.18,0,.34-.01,.51-.02,0-.16-.01-.33-.03-.5-.02-.18-.07-.35-.14-.5-.07-.15-.16-.28-.28-.38-.13-.1-.28-.15-.48-.15s-.35,.05-.48,.15"/><path class="cls-3" d="M42.84,59.75c-.04,.1-.09,.2-.16,.31-.07,.11-.15,.21-.26,.3-.1,.1-.23,.17-.37,.23-.14,.06-.31,.09-.5,.09s-.38-.04-.56-.12c-.19-.07-.36-.19-.5-.38-.14-.17-.27-.4-.35-.67-.09-.27-.13-.61-.13-.99s.04-.71,.14-.99c.1-.28,.22-.51,.38-.7,.16-.19,.33-.33,.53-.42,.19-.09,.39-.13,.59-.13,.56,0,.96,.29,1.17,.88h.02v-.87c0-.22,0-.45,0-.68,0-.23,0-.45-.01-.65,0-.21,0-.41,0-.59,0-.18,0-.34-.02-.48,.06,.01,.12,.02,.17,.03,.06,.01,.12,.02,.17,.02,.06,0,.11,0,.17-.02,.05,0,.12-.02,.18-.03-.02,.19-.03,.47-.04,.82-.02,.36-.02,.76-.02,1.19,0,.43-.02,.88-.02,1.33-.01,.45-.01,.87-.01,1.25,0,.41,0,.78,.01,1.11,0,.33,0,.66,.01,1-.11-.02-.2-.02-.3-.02-.09,0-.19,0-.29,.02l.02-.84h-.02Zm-2.07-.29c.07,.23,.15,.42,.24,.56,.1,.14,.21,.24,.34,.29,.13,.05,.25,.08,.38,.08,.2,0,.37-.05,.51-.18,.14-.11,.26-.26,.36-.45,.09-.19,.16-.4,.2-.64,.05-.24,.07-.48,.07-.71,0-.56-.09-1-.28-1.3-.19-.31-.47-.45-.83-.45-.18,0-.34,.05-.47,.15-.14,.1-.25,.24-.33,.41-.09,.17-.16,.38-.21,.61-.04,.24-.06,.49-.06,.75,0,.36,.03,.65,.09,.88"/><path class="cls-3" d="M44.72,54.51c.08-.09,.16-.14,.27-.14s.21,.05,.28,.14c.08,.08,.12,.19,.12,.31s-.04,.23-.12,.32c-.07,.09-.17,.13-.28,.13s-.19-.05-.27-.13c-.07-.09-.11-.19-.11-.32s.04-.23,.11-.31m-.02,2.68c0-.29-.03-.57-.05-.83,.14,.03,.26,.05,.34,.05s.21-.02,.35-.05c-.03,.26-.04,.53-.05,.83,0,.29-.01,.57-.01,.84v.92c0,.27,0,.55,.01,.85,0,.29,.02,.56,.05,.79-.11-.02-.23-.02-.35-.02-.11,0-.22,0-.34,.02,.03-.23,.05-.5,.05-.79,0-.29,.01-.58,.01-.85v-.92c0-.27,0-.55-.01-.84"/><path class="cls-3" d="M47.32,55.18c-.02,.23-.03,.45-.04,.67-.01,.22-.02,.43-.03,.65,.05,0,.16,0,.31,0,.15,0,.31,0,.49-.02,0,.02,0,.05,0,.1v.19s0,.07,0,.09c-.06,0-.13-.01-.21-.01-.07,0-.14-.01-.22-.01h-.38s-.02,.12-.02,.29c0,.16-.01,.36-.02,.59,0,.24-.01,.47-.01,.71,0,.25,0,.47,0,.67,0,.17,0,.33,0,.49,.01,.16,.03,.3,.07,.43,.04,.13,.1,.24,.18,.31,.09,.08,.21,.12,.35,.12,.04,0,.1,0,.16-.02,.07,0,.13-.02,.18-.05v.21c-.09,.02-.18,.04-.28,.07-.1,.03-.21,.04-.31,.04-.32,0-.55-.09-.7-.28-.16-.18-.24-.45-.24-.81,0-.16,0-.33,.01-.52,0-.19,.01-.4,.02-.62,.01-.22,.02-.47,.02-.74,0-.26,0-.57,0-.9h-.25s-.08,0-.13,.01c-.05,0-.1,0-.14,.01,0-.03,0-.07,.01-.1v-.19s-.01-.06-.01-.09c.23,.02,.4,.03,.5,.03,0-.12,0-.27-.01-.44,0-.18,0-.36-.02-.55l.63-.31h.04Z"/><path class="cls-3" d="M49.45,56.39c.19-.07,.39-.1,.59-.1,.19,0,.35,.02,.5,.09,.16,.07,.29,.15,.4,.26,.1,.12,.19,.26,.25,.42,.06,.16,.09,.34,.09,.54,0,.34,0,.67-.02,1,0,.34-.02,.69-.02,1.07,0,.07,0,.14,0,.22,0,.08,.02,.15,.03,.21,.02,.06,.05,.12,.1,.16,.03,.04,.09,.06,.17,.06,.02,0,.05,0,.08,0,.03,0,.05-.01,.08-.03v.19c-.05,.03-.12,.05-.21,.07-.08,.02-.17,.03-.28,.03-.16,0-.29-.05-.38-.14-.08-.1-.14-.22-.15-.38-.19,.22-.36,.37-.54,.47-.18,.1-.4,.16-.66,.16-.13,0-.25-.02-.37-.06-.12-.04-.23-.11-.32-.2-.1-.1-.17-.22-.23-.35-.06-.13-.09-.28-.09-.46,0-.35,.09-.63,.29-.82,.19-.2,.45-.33,.79-.4,.27-.05,.48-.09,.64-.13,.15-.03,.27-.07,.34-.12,.08-.04,.12-.09,.14-.15,.02-.06,.02-.13,.02-.22,0-.15-.02-.29-.05-.42-.03-.13-.08-.26-.15-.35-.06-.1-.15-.19-.26-.25-.1-.06-.24-.09-.39-.09-.21,0-.39,.05-.57,.16-.17,.11-.3,.26-.4,.44h-.08v-.46c.23-.2,.44-.34,.63-.4m.95,2.08c-.11,.03-.23,.05-.35,.08-.12,.02-.22,.06-.34,.1-.12,.04-.21,.1-.31,.17-.09,.07-.16,.16-.21,.26-.05,.11-.08,.25-.08,.42,0,.28,.07,.49,.2,.63,.14,.15,.29,.21,.46,.21,.19,0,.37-.06,.53-.18,.16-.13,.28-.28,.36-.44l.03-1.33c-.09,.03-.19,.07-.3,.09"/><path class="cls-3" d="M52.48,57.5c.11-.28,.26-.5,.44-.69,.17-.18,.38-.31,.62-.4,.24-.09,.48-.12,.72-.12,.28,0,.53,.03,.75,.12,.23,.08,.38,.17,.48,.27-.04,.09-.07,.18-.1,.28-.03,.1-.05,.2-.07,.3h-.06c-.04-.07-.09-.15-.15-.23-.06-.09-.14-.16-.22-.22-.09-.07-.18-.12-.28-.17-.1-.04-.21-.06-.34-.06-.22,0-.42,.04-.58,.14-.17,.1-.31,.23-.41,.41-.1,.17-.18,.37-.23,.61-.05,.24-.07,.49-.07,.76,0,.61,.11,1.07,.34,1.38,.23,.31,.55,.47,.99,.47,.1,0,.2-.01,.31-.05,.1-.03,.21-.07,.31-.14,.1-.05,.2-.12,.28-.2,.09-.08,.17-.16,.24-.25l.04,.02c-.02,.14-.04,.28-.05,.43-.15,.15-.34,.27-.57,.36-.23,.1-.46,.16-.7,.16s-.45-.03-.66-.11c-.23-.07-.43-.19-.61-.37-.18-.17-.32-.4-.43-.68-.1-.28-.16-.62-.16-1.02,0-.38,.06-.71,.17-1"/><path class="cls-3" d="M56.59,54.51c.07-.09,.17-.14,.27-.14,.11,0,.2,.05,.27,.14,.08,.08,.12,.19,.12,.31s-.04,.23-.12,.32c-.07,.09-.16,.13-.27,.13-.1,0-.2-.05-.27-.13-.08-.09-.11-.19-.11-.32s.03-.23,.11-.31m-.02,2.68c0-.29-.02-.57-.05-.83,.14,.03,.26,.05,.34,.05,.09,0,.2-.02,.34-.05-.02,.26-.04,.53-.05,.83,0,.29-.02,.57-.02,.84v.92c0,.27,0,.55,.02,.85,0,.29,.03,.56,.05,.79-.11-.02-.23-.02-.34-.02s-.22,0-.34,.02c.02-.23,.04-.5,.05-.79,.01-.29,.01-.58,.01-.85v-.92c0-.27,0-.55-.01-.84"/><path class="cls-3" d="M58.35,57.47c.11-.28,.26-.51,.43-.69,.18-.17,.38-.3,.6-.38,.22-.08,.44-.12,.66-.12s.44,.04,.66,.12c.21,.08,.42,.21,.59,.38,.18,.18,.32,.41,.43,.69,.12,.28,.17,.62,.17,1.02s-.05,.75-.17,1.02c-.1,.29-.25,.52-.43,.69-.17,.18-.38,.3-.59,.37-.22,.07-.44,.11-.66,.11s-.43-.03-.66-.11c-.23-.07-.42-.19-.6-.37-.17-.17-.32-.4-.43-.69-.11-.28-.17-.62-.17-1.02s.06-.74,.17-1.02m.56,1.75c.05,.23,.1,.44,.2,.61,.09,.19,.21,.33,.36,.44,.16,.1,.35,.16,.57,.16s.41-.05,.56-.16c.15-.12,.28-.26,.36-.44,.09-.17,.16-.38,.2-.61,.03-.23,.06-.47,.06-.72s-.03-.48-.06-.72c-.04-.23-.11-.43-.2-.61-.09-.18-.21-.33-.36-.43-.15-.11-.34-.16-.56-.16s-.41,.05-.57,.16c-.15,.1-.27,.25-.36,.43-.1,.18-.16,.38-.2,.61-.03,.24-.05,.47-.05,.72s.02,.49,.05,.72m2.08-5.15c.05,0,.1,.03,.16,.07,.07,.05,.09,.12,.09,.21,0,.12-.03,.19-.09,.26-.06,.06-.12,.12-.18,.17l-1.12,.83h-.32l1.12-1.32c.12-.14,.24-.22,.35-.22"/><path class="cls-3" d="M65.01,57.09c-.15-.23-.35-.35-.61-.35-.36,0-.62,.12-.79,.39-.16,.25-.24,.61-.24,1.07v.75c0,.27,0,.55,.01,.85,.01,.29,.03,.56,.05,.79-.12-.02-.24-.02-.35-.02s-.23,0-.34,.02c.02-.23,.04-.5,.05-.79,0-.29,0-.57,0-.85v-.92c0-.26,0-.55,0-.84-.01-.29-.03-.57-.05-.83,.14,.03,.25,.05,.34,.05,.04,0,.08,0,.13-.01,.05-.01,.1-.02,.17-.03-.01,.24-.02,.48-.02,.72h.02c.14-.26,.31-.45,.51-.59,.21-.14,.44-.21,.72-.21,.14,0,.29,.02,.43,.07,.15,.04,.28,.13,.39,.24,.12,.11,.22,.27,.29,.47,.07,.19,.11,.45,.11,.76,0,.26,0,.52-.02,.79-.01,.27-.02,.55-.02,.85v.58c0,.09,0,.19,0,.28,0,.09,0,.17,.01,.26-.1-.02-.21-.02-.32-.02s-.22,0-.32,.02c0-.3,.02-.62,.04-.95,.01-.32,.02-.66,.02-1v-.54c0-.45-.07-.79-.22-1.01"/><path class="cls-1" d="M28.42,67.37c-.09,.05-.19,.09-.31,.12-.13,.03-.27,.07-.42,.09-.16,.03-.32,.04-.48,.04-.36,0-.69-.05-1-.16-.3-.1-.57-.27-.78-.49-.22-.21-.4-.48-.52-.8-.12-.31-.19-.67-.19-1.07s.07-.76,.19-1.07c.12-.32,.29-.59,.52-.8,.23-.22,.49-.39,.81-.5,.31-.12,.66-.17,1.03-.17,.3,0,.58,.03,.83,.09,.25,.07,.47,.14,.66,.23-.04,.07-.07,.16-.09,.28-.02,.11-.04,.21-.05,.28h-.04s-.11-.1-.19-.18c-.08-.07-.17-.14-.28-.21-.11-.07-.23-.12-.37-.16-.14-.05-.28-.07-.45-.07-.26,0-.52,.05-.74,.13-.23,.09-.44,.24-.6,.42-.17,.19-.31,.42-.4,.7-.09,.29-.14,.63-.14,1.02s.05,.74,.14,1.02c.1,.29,.23,.52,.4,.71,.16,.19,.37,.33,.6,.41,.22,.09,.48,.13,.74,.13,.17,0,.31-.02,.45-.07,.14-.03,.27-.09,.39-.15,.11-.05,.22-.12,.31-.19,.09-.07,.17-.13,.24-.18l.02,.02-.05,.42s-.11,.08-.2,.12"/><path class="cls-1" d="M31.81,65.7c-.59-.66-1.18-1.32-1.77-1.97,0,.13-.01,.31-.01,.54,0,.22,0,.52,0,.9v.37c0,.16,0,.31,0,.47s0,.33,.01,.5c0,.16,0,.32,.01,.46,0,.14,.01,.27,.02,.37s0,.18,.01,.22c-.07,0-.16,0-.24,0s-.17,0-.25,0c.01-.04,.02-.14,.04-.26,0-.12,.02-.28,.03-.46,.01-.18,.02-.37,.03-.58,.02-.21,.02-.42,.04-.62,0-.21,.01-.41,.02-.62,0-.2,0-.37,0-.53,0-.46,0-.85,0-1.18,0-.33,0-.57-.02-.73h.11c.28,.31,.58,.65,.89,1,.31,.36,.63,.72,.94,1.06,.31,.35,.61,.67,.89,.99,.28,.31,.52,.58,.73,.8v-.97c0-.5,0-.99-.01-1.45-.01-.47-.03-.92-.05-1.33,.1,.03,.17,.03,.24,.03,.05,0,.13,0,.22-.03,0,.1-.02,.26-.03,.47,0,.21-.02,.43-.03,.66-.01,.24-.02,.47-.03,.69,0,.23-.01,.41-.01,.55v.93c0,.17,0,.35,.01,.53,0,.17,0,.35,0,.5,0,.16,0,.29,0,.4v.24h-.1c-.52-.63-1.08-1.28-1.67-1.94"/><path class="cls-1" d="M38.59,67.54c-.06,0-.12,0-.18,0h-.35c-.06,0-.12,0-.19,0-.03-.11-.08-.24-.13-.39-.05-.15-.12-.31-.18-.48-.07-.16-.14-.33-.21-.51-.07-.17-.13-.33-.19-.49-.14,0-.29,0-.44,0-.14,0-.3,0-.45,0-.14,0-.28,0-.41,0-.14,0-.28,0-.41,0-.15,.37-.28,.73-.4,1.05-.12,.33-.2,.61-.26,.83-.08,0-.17,0-.26,0s-.17,0-.25,0c.37-.83,.72-1.65,1.07-2.47,.35-.81,.71-1.65,1.06-2.5h.14c.11,.27,.22,.57,.35,.89,.13,.32,.25,.64,.38,.97,.14,.33,.27,.65,.4,.97,.13,.33,.26,.62,.38,.9,.11,.28,.21,.53,.31,.74,.09,.22,.17,.38,.22,.5m-3.02-2.2c.12,0,.24,0,.37,0,.12,0,.24,0,.36,0h.38c.13,0,.26,0,.38-.01l-.76-1.81-.74,1.81Z"/><rect class="cls-1" x="38.99" y="65.66" width="1.69" height=".45"/><path class="cls-1" d="M44.97,67.37c-.09,.05-.19,.09-.31,.12-.13,.03-.27,.07-.42,.09-.15,.03-.31,.04-.49,.04-.35,0-.69-.05-.99-.16-.3-.1-.57-.27-.78-.49-.23-.21-.4-.48-.52-.8-.12-.31-.19-.67-.19-1.07s.07-.76,.19-1.07c.12-.32,.29-.59,.52-.8,.22-.22,.49-.39,.81-.5,.31-.12,.65-.17,1.03-.17,.3,0,.58,.03,.83,.09,.25,.07,.47,.14,.66,.23-.04,.07-.07,.16-.09,.28-.03,.11-.05,.21-.05,.28h-.05s-.11-.1-.19-.18c-.07-.07-.17-.14-.28-.21-.11-.07-.24-.12-.38-.16-.13-.05-.29-.07-.45-.07-.26,0-.51,.05-.74,.13-.23,.09-.43,.24-.61,.42-.17,.19-.31,.42-.4,.7-.09,.29-.14,.63-.14,1.02s.05,.74,.14,1.02c.09,.29,.23,.52,.4,.71,.17,.19,.37,.33,.61,.41,.23,.09,.48,.13,.74,.13,.16,0,.32-.02,.45-.07,.14-.03,.27-.09,.39-.15,.11-.05,.22-.12,.31-.19,.09-.07,.17-.13,.24-.18l.03,.02-.07,.42s-.1,.08-.19,.12"/><path class="cls-1" d="M46.09,63.7c0-.19,0-.38-.01-.56,0-.19-.01-.36-.02-.53-.01-.17-.02-.31-.03-.43,.13,.02,.23,.03,.31,.03,.08,0,.18-.01,.31-.03,0,.12-.02,.26-.02,.43,0,.16-.01,.34-.02,.52,0,.18,0,.36-.01,.55,0,.18,0,.35,0,.51v.54h.02c.13-.2,.28-.36,.46-.47,.17-.12,.39-.17,.64-.17,.12,0,.26,.02,.39,.05,.12,.04,.24,.11,.35,.2,.1,.09,.19,.22,.26,.38,.06,.15,.1,.35,.1,.61,0,.2,0,.41-.02,.62,0,.22-.01,.44-.01,.69v.46c0,.07,0,.15,0,.22,0,.08,0,.15,0,.21-.09,0-.19,0-.29,0-.09,0-.19,0-.28,0,0-.25,.02-.5,.03-.76,.02-.26,.02-.53,.02-.8v-.43c0-.36-.07-.63-.19-.81-.13-.18-.31-.28-.55-.28-.32,0-.55,.1-.7,.31-.15,.21-.22,.49-.22,.86,0,.14,0,.29,0,.47,0,.17,0,.35,.01,.53,0,.18,.01,.35,.02,.52,0,.16,.02,.3,.02,.4-.1,0-.21,0-.31,0-.1,0-.2,0-.31,0,0-.11,.02-.25,.03-.41,0-.17,.01-.35,.02-.53,0-.18,0-.38,.01-.56,0-.19,0-.36,0-.52v-1.29c0-.16,0-.33,0-.53"/><path class="cls-1" d="M50.02,62.67c.07-.07,.15-.1,.25-.1s.17,.03,.24,.1c.07,.07,.1,.16,.1,.26s-.03,.19-.1,.26c-.07,.07-.15,.1-.24,.1s-.18-.03-.25-.1c-.07-.07-.1-.16-.1-.26s.03-.19,.1-.26m-.02,2.15c0-.24-.02-.45-.05-.66,.13,.02,.23,.04,.31,.04,.07,0,.17-.02,.3-.04-.02,.21-.04,.42-.04,.66,0,.23,0,.45,0,.67v.74c0,.21,0,.44,0,.67,0,.24,.02,.44,.04,.63-.1,0-.21,0-.3,0s-.21,0-.31,0c.02-.19,.04-.4,.05-.63,0-.23,0-.46,0-.67v-.74c0-.22,0-.44,0-.67"/><path class="cls-1" d="M51.91,63.7c0-.19,0-.38-.01-.56,0-.19-.01-.36-.02-.53,0-.17-.02-.31-.02-.43,.13,.02,.23,.03,.3,.03,.08,0,.19-.01,.31-.03-.01,.12-.02,.26-.02,.43-.01,.17-.01,.34-.02,.53,0,.18-.01,.38-.01,.56,0,.19,0,.36,0,.53v1.29c0,.16,0,.34,0,.52,0,.19,0,.38,.01,.56,0,.18,0,.36,.02,.53,0,.16,.01,.3,.02,.41-.11,0-.21,0-.31,0s-.19,0-.3,0c0-.11,.02-.25,.02-.41,0-.17,.01-.35,.02-.53,0-.18,0-.38,.01-.56v-2.34Z"/><path class="cls-1" d="M53.75,64.59c.27-.33,.65-.5,1.16-.5,.24,0,.45,.04,.63,.12,.17,.08,.33,.18,.44,.31,.11,.13,.21,.28,.26,.46,.06,.17,.09,.36,.09,.56v.14s0,.09,0,.14c-.25,0-.49,0-.73-.01-.24,0-.48,0-.73,0-.15,0-.29,0-.45,0-.15,0-.3,0-.45,.01,0,.02,0,.06,0,.11v.09c0,.19,.03,.36,.09,.52,.05,.16,.13,.3,.23,.41,.1,.12,.22,.21,.37,.28,.14,.07,.31,.1,.5,.1,.09,0,.19-.02,.28-.04,.1-.02,.19-.05,.29-.1,.09-.05,.17-.1,.25-.16,.08-.06,.15-.12,.21-.2l.04,.02-.04,.35c-.14,.11-.3,.21-.51,.29-.21,.09-.41,.12-.63,.12-.25,0-.47-.03-.67-.11-.21-.08-.38-.2-.52-.35-.15-.15-.26-.33-.34-.53-.08-.2-.13-.43-.13-.66,0-.59,.14-1.04,.4-1.37m.75-.15c-.11,.08-.22,.18-.29,.31-.07,.11-.13,.25-.17,.4-.04,.14-.07,.28-.07,.41,.14,0,.29,0,.44,.02,.16,0,.3,0,.44,0,.15,0,.3,0,.46,0,.16,0,.3-.01,.45-.02,0-.13-.02-.26-.04-.41-.02-.14-.05-.28-.12-.4-.06-.12-.14-.22-.26-.31-.11-.08-.26-.12-.43-.12s-.31,.03-.43,.12"/><polygon class="cls-2" points="43.7 21.08 50.49 36.1 45.8 39.52 39.96 26.56 32.48 43.75 32.18 44.04 31.59 44.27 26.27 44.27 26.13 44.18 36.22 20.93 36.52 20.63 36.9 20.63 43.4 20.63 43.53 20.76 43.7 21.08"/><polygon class="cls-5" points="45.82 39.64 39.81 44.41 47.79 44.41 45.82 39.64"/><polygon class="cls-5" points="50.57 36.2 62.54 26.45 54.69 44.34 54.58 44.34 54.32 44.34 54.14 44.15 50.57 36.2"/></g><g><path class="cls-4" d="M399.99,0L6.8,.23C3.04,.23,0,3.27,0,7.03L.04,81.8c0,3.75,3.05,6.8,6.8,6.79l393.19-.23c3.75,0,6.79-3.05,6.79-6.8l-.04-74.77C406.78,3.04,403.74,0,399.99,0Zm5.64,81.56c0,3.09-2.51,5.6-5.59,5.6l-393.19,.23c-3.09,0-5.6-2.51-5.61-5.6l-.04-74.77c0-3.09,2.51-5.6,5.6-5.6l393.19-.23c3.09,0,5.6,2.51,5.6,5.59l.04,74.77Z"/><g><path class="cls-4" d="M181.08,57.88c-.35,.13-1.05,.33-1.87,.33-.92,0-1.67-.23-2.27-.8-.52-.5-.85-1.31-.85-2.26,0-1.81,1.25-3.13,3.28-3.13,.7,0,1.26,.15,1.52,.28l-.2,.64c-.32-.15-.73-.26-1.34-.26-1.48,0-2.44,.92-2.44,2.44s.92,2.45,2.34,2.45c.51,0,.86-.07,1.04-.16v-1.81h-1.22v-.63h2v2.91Z"/><path class="cls-4" d="M185.71,55.3h-2.35v2.18h2.63v.66h-3.42v-6.06h3.28v.66h-2.49v1.91h2.35v.65Z"/><path class="cls-4" d="M187.22,57.19c.35,.22,.85,.4,1.39,.4,.8,0,1.27-.42,1.27-1.03,0-.56-.32-.89-1.14-1.2-.99-.36-1.6-.88-1.6-1.73,0-.94,.78-1.65,1.96-1.65,.61,0,1.07,.14,1.33,.3l-.22,.64c-.19-.12-.59-.29-1.14-.29-.83,0-1.14,.49-1.14,.91,0,.57,.37,.85,1.2,1.17,1.03,.4,1.54,.89,1.54,1.78,0,.93-.68,1.75-2.11,1.75-.58,0-1.22-.18-1.55-.4l.21-.66Z"/><path class="cls-4" d="M193.22,52.75h-1.84v-.67h4.49v.67h-1.85v5.39h-.79v-5.39Z"/><path class="cls-4" d="M197.63,52.09v6.06h-.79v-6.06h.79Z"/><path class="cls-4" d="M204.49,55.05c0,2.08-1.27,3.19-2.81,3.19s-2.72-1.25-2.72-3.08c0-1.92,1.19-3.18,2.81-3.18s2.73,1.27,2.73,3.08Zm-4.71,.09c0,1.3,.7,2.46,1.94,2.46s1.94-1.14,1.94-2.52c0-1.21-.63-2.47-1.93-2.47s-1.95,1.21-1.95,2.53Zm3.26-4.45l-1.15,1.05h-.64l.84-1.05h.95Z"/><path class="cls-4" d="M205.82,58.15v-6.06h.86l1.93,3.07c.44,.71,.8,1.35,1.08,1.97h.03c-.07-.82-.09-1.56-.09-2.5v-2.54h.74v6.06h-.79l-1.92-3.08c-.42-.67-.83-1.37-1.12-2.02h-.03c.04,.77,.05,1.5,.05,2.51v2.59h-.74Z"/><path class="cls-4" d="M215.06,52.09v6.06h-.79v-6.06h.79Z"/><path class="cls-4" d="M216.74,58.15v-6.06h.86l1.93,3.07c.44,.71,.8,1.35,1.08,1.97h.03c-.07-.82-.09-1.56-.09-2.5v-2.54h.74v6.06h-.79l-1.92-3.08c-.42-.67-.83-1.37-1.12-2.02h-.03c.04,.77,.05,1.5,.05,2.51v2.59h-.74Z"/><path class="cls-4" d="M222.87,57.19c.35,.22,.85,.4,1.39,.4,.8,0,1.27-.42,1.27-1.03,0-.56-.32-.89-1.14-1.2-.99-.36-1.6-.88-1.6-1.73,0-.94,.78-1.65,1.96-1.65,.61,0,1.07,.14,1.33,.3l-.22,.64c-.19-.12-.59-.29-1.14-.29-.83,0-1.14,.49-1.14,.91,0,.57,.37,.85,1.2,1.17,1.03,.4,1.54,.89,1.54,1.78,0,.93-.68,1.75-2.11,1.75-.58,0-1.22-.18-1.55-.4l.21-.66Z"/><path class="cls-4" d="M228.87,52.75h-1.84v-.67h4.49v.67h-1.85v5.39h-.79v-5.39Z"/><path class="cls-4" d="M233.29,52.09v6.06h-.79v-6.06h.79Z"/><path class="cls-4" d="M236.12,52.75h-1.84v-.67h4.49v.67h-1.85v5.39h-.79v-5.39Z"/><path class="cls-4" d="M240.53,52.09v3.6c0,1.35,.6,1.92,1.41,1.92,.89,0,1.47-.59,1.47-1.92v-3.6h.79v3.54c0,1.86-.98,2.62-2.29,2.62-1.24,0-2.18-.7-2.18-2.59v-3.57h.79Z"/><path class="cls-4" d="M250.11,57.96c-.28,.14-.86,.29-1.6,.29-1.71,0-2.99-1.08-2.99-3.07s1.29-3.18,3.17-3.18c.75,0,1.23,.16,1.44,.27l-.2,.64c-.29-.14-.71-.25-1.21-.25-1.42,0-2.36,.91-2.36,2.5,0,1.49,.85,2.44,2.32,2.44,.49,0,.97-.1,1.29-.25l.15,.63Z"/><path class="cls-4" d="M252.2,52.09v6.06h-.79v-6.06h.79Z"/><path class="cls-4" d="M259.06,55.05c0,2.08-1.27,3.19-2.81,3.19s-2.72-1.25-2.72-3.08c0-1.92,1.19-3.18,2.81-3.18s2.73,1.27,2.73,3.08Zm-4.71,.09c0,1.3,.7,2.46,1.94,2.46s1.94-1.14,1.94-2.52c0-1.21-.63-2.47-1.93-2.47s-1.95,1.21-1.95,2.53Z"/><path class="cls-4" d="M260.39,58.15v-6.06h.86l1.93,3.07c.44,.71,.8,1.35,1.08,1.97h.03c-.07-.82-.09-1.56-.09-2.5v-2.54h.74v6.06h-.79l-1.92-3.08c-.42-.67-.83-1.37-1.12-2.02h-.03c.04,.77,.05,1.5,.05,2.51v2.59h-.74Z"/><path class="cls-4" d="M267.6,56.24l-.63,1.91h-.81l2.07-6.06h.93l2.07,6.06h-.84l-.65-1.91h-2.15Zm2-.61l-.6-1.74c-.13-.4-.23-.76-.32-1.11h-.02c-.09,.35-.18,.73-.31,1.1l-.59,1.75h1.83Z"/><path class="cls-4" d="M272.43,52.09h.79v5.4h2.59v.66h-3.38v-6.06Z"/><path class="cls-4" d="M278.93,55.79c0-.33,.23-.57,.54-.57s.53,.23,.53,.57c0,.31-.22,.56-.55,.56-.31,0-.52-.24-.52-.56Z"/><path class="cls-4" d="M283.61,52.18c.48-.08,1.04-.13,1.66-.13,1.12,0,1.92,.27,2.45,.76,.55,.49,.86,1.2,.86,2.18s-.32,1.8-.87,2.36c-.58,.57-1.51,.87-2.69,.87-.57,0-1.03-.03-1.42-.07v-5.95Zm.78,5.36c.2,.03,.49,.04,.79,.04,1.68,0,2.58-.93,2.58-2.57,0-1.43-.8-2.34-2.45-2.34-.4,0-.71,.04-.92,.08v4.79Z"/><path class="cls-4" d="M295.1,55.05c0,2.08-1.27,3.19-2.81,3.19s-2.72-1.25-2.72-3.08c0-1.92,1.19-3.18,2.81-3.18s2.73,1.27,2.73,3.08Zm-4.71,.09c0,1.3,.7,2.46,1.94,2.46s1.94-1.14,1.94-2.52c0-1.21-.63-2.47-1.93-2.47s-1.95,1.21-1.95,2.53Z"/><path class="cls-4" d="M300.65,57.96c-.28,.14-.86,.29-1.6,.29-1.71,0-2.99-1.08-2.99-3.07s1.29-3.18,3.17-3.18c.75,0,1.23,.16,1.44,.27l-.2,.64c-.29-.14-.71-.25-1.21-.25-1.42,0-2.36,.91-2.36,2.5,0,1.49,.85,2.44,2.32,2.44,.49,0,.97-.1,1.29-.25l.15,.63Z"/><path class="cls-4" d="M305.09,55.3h-2.35v2.18h2.63v.66h-3.42v-6.06h3.28v.66h-2.49v1.91h2.35v.65Z"/><path class="cls-4" d="M306.7,58.15v-6.06h.86l1.93,3.07c.44,.71,.8,1.35,1.08,1.97h.03c-.07-.82-.09-1.56-.09-2.5v-2.54h.74v6.06h-.79l-1.92-3.08c-.42-.67-.83-1.37-1.12-2.02h-.03c.04,.77,.05,1.5,.05,2.51v2.59h-.74Z"/><path class="cls-4" d="M317.15,57.96c-.28,.14-.86,.29-1.6,.29-1.71,0-2.99-1.08-2.99-3.07s1.29-3.18,3.17-3.18c.75,0,1.23,.16,1.44,.27l-.2,.64c-.29-.14-.71-.25-1.21-.25-1.42,0-2.36,.91-2.36,2.5,0,1.49,.85,2.44,2.32,2.44,.49,0,.97-.1,1.29-.25l.15,.63Z"/><path class="cls-4" d="M319.24,52.09v6.06h-.79v-6.06h.79Z"/><path class="cls-4" d="M321.9,56.24l-.63,1.91h-.81l2.07-6.06h.93l2.07,6.06h-.84l-.65-1.91h-2.15Zm2-.61l-.6-1.74c-.13-.4-.23-.76-.32-1.11h-.02c-.09,.35-.18,.73-.31,1.1l-.59,1.75h1.83Z"/><path class="cls-4" d="M328.96,52.16c.38-.06,.87-.12,1.5-.12,.77,0,1.34,.18,1.7,.5,.32,.29,.53,.73,.53,1.27s-.16,.98-.47,1.3c-.42,.44-1.09,.67-1.85,.67-.23,0-.45,0-.63-.05v2.43h-.78v-5.99Zm.78,2.92c.17,.04,.39,.06,.65,.06,.94,0,1.52-.47,1.52-1.29s-.58-1.2-1.43-1.2c-.34,0-.6,.03-.74,.06v2.36Z"/><path class="cls-4" d="M334.06,52.17c.4-.07,.97-.13,1.5-.13,.84,0,1.38,.16,1.75,.49,.3,.27,.48,.68,.48,1.16,0,.79-.5,1.32-1.13,1.54v.03c.46,.16,.74,.59,.88,1.22,.2,.85,.34,1.43,.47,1.66h-.81c-.1-.18-.23-.69-.4-1.45-.18-.84-.51-1.15-1.22-1.18h-.74v2.63h-.78v-5.98Zm.78,2.76h.8c.84,0,1.37-.46,1.37-1.15,0-.78-.57-1.12-1.39-1.12-.38,0-.64,.03-.77,.06v2.21Z"/><path class="cls-4" d="M342.34,55.3h-2.35v2.18h2.63v.66h-3.42v-6.06h3.28v.66h-2.49v1.91h2.35v.65Z"/><path class="cls-4" d="M348.57,57.88c-.35,.13-1.05,.33-1.87,.33-.92,0-1.67-.23-2.27-.8-.52-.5-.85-1.31-.85-2.26,0-1.81,1.25-3.13,3.28-3.13,.7,0,1.26,.15,1.52,.28l-.2,.64c-.32-.15-.73-.26-1.34-.26-1.48,0-2.44,.92-2.44,2.44s.92,2.45,2.34,2.45c.51,0,.86-.07,1.04-.16v-1.81h-1.22v-.63h2v2.91Z"/><path class="cls-4" d="M350.07,52.17c.4-.07,.97-.13,1.5-.13,.84,0,1.38,.16,1.75,.49,.3,.27,.48,.68,.48,1.16,0,.79-.5,1.32-1.13,1.54v.03c.46,.16,.74,.59,.88,1.22,.2,.85,.34,1.43,.47,1.66h-.81c-.1-.18-.23-.69-.4-1.45-.18-.84-.51-1.15-1.22-1.18h-.74v2.63h-.78v-5.98Zm.78,2.76h.8c.84,0,1.37-.46,1.37-1.15,0-.78-.57-1.12-1.39-1.12-.38,0-.64,.03-.77,.06v2.21Z"/><path class="cls-4" d="M356.25,56.24l-.63,1.91h-.81l2.07-6.06h.93l2.07,6.06h-.84l-.65-1.91h-2.15Zm2-.61l-.6-1.74c-.13-.4-.23-.76-.32-1.11h-.02c-.09,.35-.18,.73-.31,1.1l-.59,1.75h1.83Z"/><path class="cls-4" d="M361.09,52.18c.48-.08,1.04-.13,1.66-.13,1.12,0,1.92,.27,2.45,.76,.55,.49,.86,1.2,.86,2.18s-.32,1.8-.87,2.36c-.58,.57-1.51,.87-2.69,.87-.57,0-1.03-.03-1.42-.07v-5.95Zm.78,5.36c.2,.03,.49,.04,.79,.04,1.68,0,2.58-.93,2.58-2.57,0-1.43-.8-2.34-2.45-2.34-.4,0-.71,.04-.92,.08v4.79Z"/><path class="cls-4" d="M372.57,55.05c0,2.08-1.27,3.19-2.81,3.19s-2.72-1.25-2.72-3.08c0-1.92,1.19-3.18,2.81-3.18s2.73,1.27,2.73,3.08Zm-4.71,.09c0,1.3,.7,2.46,1.94,2.46s1.94-1.14,1.94-2.52c0-1.21-.63-2.47-1.93-2.47s-1.95,1.21-1.95,2.53Z"/><path class="cls-4" d="M153.29,62.88v6.06h-.79v-6.06h.79Z"/><path class="cls-4" d="M154.97,68.94v-6.06h.86l1.93,3.07c.44,.71,.8,1.35,1.08,1.97h.03c-.07-.82-.09-1.56-.09-2.5v-2.54h.74v6.06h-.79l-1.92-3.08c-.42-.67-.83-1.37-1.12-2.02h-.03c.04,.77,.05,1.5,.05,2.51v2.59h-.74Z"/><path class="cls-4" d="M162.54,68.94l-1.99-6.06h.85l.94,2.99c.25,.82,.48,1.56,.65,2.27h.02c.17-.7,.41-1.47,.69-2.26l1.02-2.99h.84l-2.17,6.06h-.86Z"/><path class="cls-4" d="M169.67,66.1h-2.35v2.18h2.63v.66h-3.42v-6.06h3.28v.66h-2.49v1.91h2.35v.65Z"/><path class="cls-4" d="M171.18,67.98c.35,.22,.85,.4,1.39,.4,.8,0,1.27-.42,1.27-1.03,0-.56-.32-.89-1.14-1.2-.99-.36-1.6-.88-1.6-1.73,0-.94,.78-1.65,1.96-1.65,.61,0,1.07,.14,1.33,.3l-.22,.64c-.19-.12-.59-.29-1.14-.29-.83,0-1.14,.49-1.14,.91,0,.57,.37,.85,1.2,1.17,1.03,.4,1.54,.89,1.54,1.78,0,.93-.68,1.75-2.11,1.75-.58,0-1.22-.18-1.55-.4l.21-.66Z"/><path class="cls-4" d="M177.17,63.54h-1.84v-.67h4.49v.67h-1.85v5.39h-.79v-5.39Z"/><path class="cls-4" d="M181.59,62.88v6.06h-.79v-6.06h.79Z"/><path class="cls-4" d="M187.89,68.67c-.35,.13-1.05,.33-1.87,.33-.92,0-1.67-.23-2.27-.8-.52-.5-.85-1.31-.85-2.26,0-1.81,1.25-3.13,3.28-3.13,.7,0,1.26,.15,1.52,.28l-.2,.64c-.32-.15-.73-.26-1.34-.26-1.48,0-2.44,.92-2.44,2.44s.92,2.45,2.34,2.45c.51,0,.86-.07,1.04-.16v-1.81h-1.22v-.63h2v2.91Z"/><path class="cls-4" d="M190.38,67.03l-.63,1.91h-.81l2.07-6.06h.93l2.07,6.06h-.84l-.65-1.91h-2.15Zm2-.61l-.6-1.74c-.13-.4-.23-.76-.32-1.11h-.02c-.09,.35-.18,.73-.31,1.1l-.59,1.75h1.83Z"/><path class="cls-4" d="M199.31,68.75c-.28,.14-.86,.29-1.6,.29-1.71,0-2.99-1.08-2.99-3.07s1.29-3.18,3.17-3.18c.75,0,1.23,.16,1.44,.27l-.2,.64c-.29-.14-.71-.25-1.21-.25-1.42,0-2.36,.91-2.36,2.5,0,1.49,.85,2.44,2.32,2.44,.49,0,.97-.1,1.29-.25l.15,.63Z"/><path class="cls-4" d="M201.39,62.88v6.06h-.79v-6.06h.79Z"/><path class="cls-4" d="M208.25,65.84c0,2.08-1.27,3.19-2.81,3.19s-2.72-1.25-2.72-3.08c0-1.92,1.19-3.18,2.81-3.18s2.73,1.27,2.73,3.08Zm-4.71,.09c0,1.3,.7,2.46,1.94,2.46s1.94-1.14,1.94-2.52c0-1.21-.63-2.47-1.93-2.47s-1.95,1.21-1.95,2.53Zm3.26-4.45l-1.15,1.05h-.64l.84-1.05h.95Z"/><path class="cls-4" d="M209.58,68.94v-6.06h.86l1.93,3.07c.44,.71,.8,1.35,1.08,1.97h.03c-.07-.82-.09-1.56-.09-2.5v-2.54h.74v6.06h-.79l-1.92-3.08c-.42-.67-.83-1.37-1.12-2.02h-.03c.04,.77,.05,1.5,.05,2.51v2.59h-.74Z"/><path class="cls-4" d="M217.75,66.58c0-.33,.23-.57,.54-.57s.53,.23,.53,.57c0,.31-.22,.56-.55,.56-.31,0-.52-.24-.52-.56Z"/><path class="cls-4" d="M222.43,62.95c.38-.06,.87-.12,1.5-.12,.77,0,1.34,.18,1.7,.5,.32,.29,.53,.73,.53,1.27s-.16,.98-.47,1.3c-.42,.44-1.09,.67-1.85,.67-.23,0-.45,0-.63-.05v2.43h-.78v-5.99Zm.78,2.92c.17,.04,.39,.06,.65,.06,.94,0,1.52-.47,1.52-1.29s-.58-1.2-1.43-1.2c-.34,0-.6,.03-.74,.06v2.36Z"/><path class="cls-4" d="M232.71,65.84c0,2.08-1.27,3.19-2.81,3.19s-2.72-1.25-2.72-3.08c0-1.92,1.19-3.18,2.81-3.18s2.73,1.27,2.73,3.08Zm-4.71,.09c0,1.3,.7,2.46,1.94,2.46s1.94-1.14,1.94-2.52c0-1.21-.63-2.47-1.93-2.47s-1.95,1.21-1.95,2.53Z"/><path class="cls-4" d="M233.94,67.98c.35,.22,.85,.4,1.39,.4,.8,0,1.27-.42,1.27-1.03,0-.56-.32-.89-1.14-1.2-.99-.36-1.6-.88-1.6-1.73,0-.94,.78-1.65,1.96-1.65,.61,0,1.07,.14,1.33,.3l-.22,.64c-.19-.12-.59-.29-1.14-.29-.83,0-1.14,.49-1.14,.91,0,.57,.37,.85,1.2,1.17,1.03,.4,1.54,.89,1.54,1.78,0,.93-.68,1.75-2.11,1.75-.58,0-1.22-.18-1.55-.4l.21-.66Z"/><path class="cls-4" d="M239.94,63.54h-1.84v-.67h4.49v.67h-1.85v5.39h-.79v-5.39Z"/><path class="cls-4" d="M247.95,68.67c-.35,.13-1.05,.33-1.87,.33-.92,0-1.67-.23-2.27-.8-.52-.5-.85-1.31-.85-2.26,0-1.81,1.25-3.13,3.28-3.13,.7,0,1.26,.15,1.52,.28l-.2,.64c-.32-.15-.73-.26-1.34-.26-1.48,0-2.44,.92-2.44,2.44s.92,2.45,2.34,2.45c.51,0,.86-.07,1.04-.16v-1.81h-1.22v-.63h2v2.91Z"/><path class="cls-4" d="M249.45,62.96c.4-.07,.97-.13,1.5-.13,.84,0,1.38,.16,1.75,.49,.3,.27,.48,.68,.48,1.16,0,.79-.5,1.32-1.13,1.54v.03c.46,.16,.74,.59,.88,1.22,.2,.85,.34,1.43,.47,1.66h-.81c-.1-.18-.23-.69-.4-1.45-.18-.84-.51-1.15-1.22-1.18h-.74v2.63h-.78v-5.98Zm.78,2.76h.8c.84,0,1.37-.46,1.37-1.15,0-.78-.57-1.12-1.39-1.12-.38,0-.64,.03-.77,.06v2.21Z"/><path class="cls-4" d="M255.63,67.03l-.63,1.91h-.81l2.07-6.06h.93l2.07,6.06h-.84l-.65-1.91h-2.15Zm2-.61l-.6-1.74c-.13-.4-.23-.76-.32-1.11h-.02c-.09,.35-.18,.73-.31,1.1l-.59,1.75h1.83Z"/><path class="cls-4" d="M260.47,62.97c.48-.08,1.04-.13,1.66-.13,1.12,0,1.92,.27,2.45,.76,.55,.49,.86,1.2,.86,2.18s-.32,1.8-.87,2.36c-.58,.57-1.51,.87-2.69,.87-.57,0-1.03-.03-1.42-.07v-5.95Zm.78,5.36c.2,.03,.49,.04,.79,.04,1.68,0,2.58-.93,2.58-2.57,0-1.43-.8-2.34-2.45-2.34-.4,0-.71,.04-.92,.08v4.79Z"/><path class="cls-4" d="M271.95,65.84c0,2.08-1.27,3.19-2.81,3.19s-2.72-1.25-2.72-3.08c0-1.92,1.19-3.18,2.81-3.18s2.73,1.27,2.73,3.08Zm-4.71,.09c0,1.3,.7,2.46,1.94,2.46s1.94-1.14,1.94-2.52c0-1.21-.63-2.47-1.93-2.47s-1.95,1.21-1.95,2.53Z"/><path class="cls-4" d="M275.22,66.58c0-.33,.23-.57,.54-.57s.53,.23,.53,.57c0,.31-.22,.56-.55,.56-.31,0-.52-.24-.52-.56Z"/><path class="cls-4" d="M280.91,68.94l-1.99-6.06h.85l.94,2.99c.25,.82,.48,1.56,.65,2.27h.02c.17-.7,.41-1.47,.69-2.26l1.02-2.99h.84l-2.17,6.06h-.86Z"/><path class="cls-4" d="M285.69,62.88v6.06h-.79v-6.06h.79Z"/><path class="cls-4" d="M287.37,68.94v-6.06h.86l1.93,3.07c.44,.71,.8,1.35,1.08,1.97h.03c-.07-.82-.09-1.56-.09-2.5v-2.54h.74v6.06h-.79l-1.92-3.08c-.42-.67-.83-1.37-1.12-2.02h-.03c.04,.77,.05,1.5,.05,2.51v2.59h-.74Z"/><path class="cls-4" d="M297.83,68.75c-.28,.14-.86,.29-1.6,.29-1.71,0-2.99-1.08-2.99-3.07s1.29-3.18,3.17-3.18c.75,0,1.23,.16,1.44,.27l-.2,.64c-.29-.14-.71-.25-1.21-.25-1.42,0-2.36,.91-2.36,2.5,0,1.49,.85,2.44,2.32,2.44,.49,0,.97-.1,1.29-.25l.15,.63Z"/><path class="cls-4" d="M299.92,62.88v3.6c0,1.35,.6,1.92,1.41,1.92,.89,0,1.47-.59,1.47-1.92v-3.6h.79v3.54c0,1.86-.98,2.62-2.29,2.62-1.24,0-2.18-.7-2.18-2.59v-3.57h.79Z"/><path class="cls-4" d="M305.26,62.88h.79v5.4h2.59v.66h-3.38v-6.06Z"/><path class="cls-4" d="M310.81,67.03l-.63,1.91h-.81l2.07-6.06h.93l2.07,6.06h-.84l-.65-1.91h-2.15Zm2-.61l-.6-1.74c-.13-.4-.23-.76-.32-1.11h-.02c-.09,.35-.18,.73-.31,1.1l-.59,1.75h1.83Z"/><path class="cls-4" d="M319.74,68.75c-.28,.14-.86,.29-1.6,.29-1.71,0-2.99-1.08-2.99-3.07s1.29-3.18,3.17-3.18c.75,0,1.23,.16,1.44,.27l-.2,.64c-.29-.14-.71-.25-1.21-.25-1.42,0-2.36,.91-2.36,2.5,0,1.49,.85,2.44,2.32,2.44,.49,0,.97-.1,1.29-.25l.15,.63Z"/><path class="cls-4" d="M321.82,62.88v6.06h-.79v-6.06h.79Z"/><path class="cls-4" d="M328.68,65.84c0,2.08-1.27,3.19-2.81,3.19s-2.72-1.25-2.72-3.08c0-1.92,1.19-3.18,2.81-3.18s2.73,1.27,2.73,3.08Zm-4.71,.09c0,1.3,.7,2.46,1.94,2.46s1.94-1.14,1.94-2.52c0-1.21-.63-2.47-1.93-2.47s-1.95,1.21-1.95,2.53Zm3.26-4.45l-1.15,1.05h-.64l.84-1.05h.95Z"/><path class="cls-4" d="M330.01,68.94v-6.06h.86l1.93,3.07c.44,.71,.8,1.35,1.08,1.97h.03c-.07-.82-.09-1.56-.09-2.5v-2.54h.74v6.06h-.79l-1.92-3.08c-.42-.67-.83-1.37-1.12-2.02h-.03c.04,.77,.05,1.5,.05,2.51v2.59h-.74Z"/><path class="cls-4" d="M342.69,68.75c-.28,.14-.86,.29-1.6,.29-1.71,0-2.99-1.08-2.99-3.07s1.29-3.18,3.17-3.18c.75,0,1.23,.16,1.44,.27l-.2,.64c-.29-.14-.71-.25-1.21-.25-1.42,0-2.36,.91-2.36,2.5,0,1.49,.85,2.44,2.32,2.44,.49,0,.97-.1,1.29-.25l.15,.63Z"/><path class="cls-4" d="M348.98,65.84c0,2.08-1.27,3.19-2.81,3.19s-2.72-1.25-2.72-3.08c0-1.92,1.19-3.18,2.81-3.18s2.73,1.27,2.73,3.08Zm-4.71,.09c0,1.3,.7,2.46,1.94,2.46s1.94-1.14,1.94-2.52c0-1.21-.63-2.47-1.93-2.47s-1.95,1.21-1.95,2.53Z"/><path class="cls-4" d="M350.32,68.94v-6.06h.86l1.93,3.07c.44,.71,.8,1.35,1.08,1.97h.03c-.07-.82-.09-1.56-.09-2.5v-2.54h.74v6.06h-.79l-1.92-3.08c-.42-.67-.83-1.37-1.12-2.02h-.03c.04,.77,.05,1.5,.05,2.51v2.59h-.74Z"/><path class="cls-4" d="M361.9,66.1h-2.35v2.18h2.63v.66h-3.42v-6.06h3.28v.66h-2.49v1.91h2.35v.65Z"/><path class="cls-4" d="M363.5,62.88h.79v5.4h2.59v.66h-3.38v-6.06Z"/><path class="cls-4" d="M375.39,66.28c-.05-.85-.1-1.87-.1-2.62h-.02c-.22,.7-.46,1.47-.76,2.3l-1.07,2.94h-.59l-.99-2.89c-.29-.86-.52-1.64-.69-2.36h-.02c-.02,.76-.06,1.76-.12,2.68l-.16,2.6h-.75l.42-6.06h1l1.03,2.93c.25,.75,.45,1.41,.61,2.04h.02c.16-.61,.38-1.28,.65-2.04l1.08-2.93h1l.38,6.06h-.77l-.14-2.66Z"/><path class="cls-4" d="M380.96,66.1h-2.35v2.18h2.63v.66h-3.42v-6.06h3.28v.66h-2.49v1.91h2.35v.65Z"/><path class="cls-4" d="M382.57,62.97c.48-.08,1.04-.13,1.66-.13,1.12,0,1.92,.27,2.45,.76,.55,.49,.86,1.2,.86,2.18s-.32,1.8-.87,2.36c-.58,.57-1.51,.87-2.69,.87-.57,0-1.03-.03-1.42-.07v-5.95Zm.78,5.36c.2,.03,.49,.04,.79,.04,1.68,0,2.58-.93,2.58-2.57,0-1.43-.8-2.34-2.45-2.34-.4,0-.71,.04-.92,.08v4.79Z"/><path class="cls-4" d="M389.66,62.88v6.06h-.79v-6.06h.79Z"/><path class="cls-4" d="M396.51,65.84c0,2.08-1.27,3.19-2.81,3.19s-2.72-1.25-2.72-3.08c0-1.92,1.19-3.18,2.81-3.18s2.73,1.27,2.73,3.08Zm-4.71,.09c0,1.3,.7,2.46,1.94,2.46s1.94-1.14,1.94-2.52c0-1.21-.63-2.47-1.93-2.47s-1.95,1.21-1.95,2.53Z"/></g><g><path class="cls-4" d="M117.93,15.56c-.68-.04-1.4,0-2.37,.08-5.41,.44-7.82,3.21-8.5,6.22h.12c1.28-1.28,3.13-2.04,5.53-2.04,4.37,0,8.06,3.09,8.06,8.5s-3.97,9.42-9.59,9.42c-6.98,0-10.39-5.17-10.39-11.39,0-4.89,1.8-8.98,4.65-11.63,2.57-2.37,5.98-3.61,10.03-3.81,1.12-.12,1.89-.08,2.45-.04v4.69Zm-3.33,13.07c0-2.41-1.28-4.49-3.89-4.49-1.64,0-3.01,1-3.57,2.29-.2,.36-.28,.84-.28,1.56,.12,2.77,1.44,5.25,4.25,5.25,2.13,0,3.49-1.97,3.49-4.61Z"/><g><path class="cls-4" d="M97.33,55.85l-1.02-3.26h-3.99l-1,3.26h-1.67l3.77-11.53h2.01l3.71,11.53h-1.8Zm-2.93-9.93h-.1c-.18,.65-1.39,4.78-1.59,5.33h3.24c-.2-.54-1.4-4.66-1.55-5.33Z"/><path class="cls-4" d="M106.51,55.85l-3.03-6.12c-.59-1.19-1.18-2.49-1.4-3.16l-.1,.02c.08,.99,.12,2.14,.14,3.21l.07,6.05h-1.62v-11.51h1.87l3.21,6.35c.49,.95,1.05,2.44,1.14,2.75l.1-.03c-.03-.33-.17-2.15-.17-3.42l-.03-5.65h1.55v11.51h-1.73Zm-1.21-12.49c-1.01,0-1.18-.7-2.15-.7-.52,0-.77,.25-1.1,.64l-.52-.87c.53-.7,1-1.08,1.95-1.08,1.02,0,1.19,.69,2.16,.69,.52,0,.79-.27,1.12-.64l.52,.87c-.53,.69-1.02,1.1-1.98,1.1Z"/><path class="cls-4" d="M115.32,56.04c-3.18,0-4.75-2.52-4.75-5.98,0-3.8,1.85-5.92,4.66-5.92,3.39,0,4.73,2.83,4.73,6.04,0,3.53-1.72,5.87-4.64,5.87Zm-.08-10.65c-2.04,0-2.86,1.52-2.86,4.48s.69,4.94,2.94,4.94c1.79,0,2.81-1.28,2.81-4.5s-.72-4.93-2.89-4.93Z"/><path class="cls-4" d="M125.43,56.07c-1.31,0-2.59-.34-3.7-1.02l.63-1.24c1,.62,1.96,.95,3.11,.95,1.5,0,2.5-.77,2.5-2.01,0-.93-.62-1.58-1.91-1.95l-1.2-.35c-1.74-.5-2.72-1.34-2.72-2.98,0-1.99,1.54-3.35,3.81-3.35,1.27,0,2.51,.37,3.52,1.09l-.72,1.14c-1.07-.65-1.79-.91-2.74-.91-1.29,0-2.09,.67-2.09,1.74,0,.82,.47,1.28,1.71,1.65l1.35,.4c1.54,.45,2.81,1.45,2.81,3.25,0,1.6-1.32,3.57-4.35,3.57Z"/></g><g><path class="cls-4" d="M100.65,59.49v1.89h1.83v-1.89h1.11v4.92h-1.11v-2.06h-1.83v2.06h-1.11v-4.92h1.11Z"/><path class="cls-4" d="M105.7,63.14l-.35,1.26h-1.15l1.5-4.92h1.46l1.53,4.92h-1.2l-.38-1.26h-1.41Zm1.25-.83l-.31-1.04c-.09-.29-.18-.66-.25-.95h-.01c-.07,.29-.15,.66-.23,.95l-.29,1.04h1.09Z"/><path class="cls-4" d="M109.38,63.26c.29,.15,.76,.31,1.23,.31,.51,0,.78-.21,.78-.53s-.23-.48-.82-.69c-.82-.29-1.36-.74-1.36-1.46,0-.84,.71-1.47,1.86-1.47,.56,0,.96,.11,1.25,.25l-.25,.89c-.19-.1-.55-.23-1.02-.23s-.71,.23-.71,.47c0,.31,.27,.45,.91,.69,.87,.32,1.27,.77,1.27,1.47,0,.82-.63,1.52-1.98,1.52-.56,0-1.12-.15-1.39-.31l.23-.91Z"/><path class="cls-4" d="M114.23,60.42h-1.33v-.93h3.78v.93h-1.34v3.98h-1.11v-3.98Z"/><path class="cls-4" d="M117.89,63.14l-.35,1.26h-1.15l1.5-4.92h1.46l1.53,4.92h-1.2l-.38-1.26h-1.41Zm1.25-.83l-.31-1.04c-.09-.29-.18-.66-.25-.95h-.01c-.07,.29-.15,.66-.23,.95l-.29,1.04h1.09Z"/><path class="cls-4" d="M92.41,67.34c.41-.07,.94-.11,1.5-.11,.94,0,1.55,.18,2.02,.53,.51,.38,.83,.99,.83,1.85,0,.94-.34,1.59-.81,1.99-.52,.43-1.31,.63-2.28,.63-.58,0-.99-.04-1.26-.07v-4.82Zm1.11,4c.09,.02,.25,.02,.39,.02,1.01,0,1.68-.55,1.68-1.72,0-1.02-.6-1.56-1.56-1.56-.24,0-.41,.02-.5,.04v3.22Z"/><path class="cls-4" d="M98.6,67.26v4.92h-1.11v-4.92h1.11Z"/><path class="cls-4" d="M103.16,72.05c-.2,.1-.66,.21-1.25,.21-1.7,0-2.57-1.07-2.57-2.47,0-1.68,1.2-2.6,2.68-2.6,.58,0,1.01,.11,1.21,.22l-.23,.88c-.22-.1-.53-.18-.93-.18-.88,0-1.56,.53-1.56,1.63,0,.99,.58,1.6,1.57,1.6,.34,0,.71-.07,.93-.16l.16,.88Z"/><path class="cls-4" d="M105.01,67.26v4.92h-1.11v-4.92h1.11Z"/><path class="cls-4" d="M108.9,70.1h-1.81v1.17h2.02v.91h-3.13v-4.92h3.03v.91h-1.92v1.02h1.81v.9Z"/><path class="cls-4" d="M114.03,70.3c-.02-.59-.04-1.31-.04-2.02h-.02c-.16,.63-.37,1.33-.55,1.9l-.6,1.92h-.87l-.53-1.9c-.16-.58-.32-1.28-.45-1.93h-.01c-.02,.66-.05,1.42-.08,2.04l-.09,1.87h-1.03l.31-4.92h1.48l.48,1.64c.16,.57,.31,1.18,.42,1.76h.03c.13-.57,.3-1.22,.47-1.77l.52-1.63h1.46l.26,4.92h-1.08l-.08-1.88Z"/><path class="cls-4" d="M116.03,67.33c.29-.05,.88-.1,1.44-.1,.68,0,1.09,.07,1.46,.28,.34,.18,.58,.52,.58,.97s-.26,.83-.81,1.04h0c.56,.16,.98,.59,.98,1.22,0,.45-.21,.8-.51,1.05-.36,.28-.96,.45-1.93,.45-.55,0-.96-.04-1.2-.07v-4.83Zm1.1,1.88h.37c.59,0,.9-.24,.9-.61s-.28-.57-.79-.57c-.25,0-.39,.01-.47,.03v1.15Zm0,2.18c.11,.01,.24,.01,.43,.01,.5,0,.95-.2,.95-.71,0-.49-.45-.69-1-.69h-.38v1.39Z"/><path class="cls-4" d="M120.44,67.33c.36-.06,.88-.1,1.48-.1,.73,0,1.24,.11,1.59,.39,.3,.23,.46,.58,.46,1.04,0,.62-.44,1.05-.87,1.2v.02c.34,.14,.53,.46,.66,.91,.15,.56,.3,1.2,.39,1.39h-1.14c-.07-.15-.2-.54-.34-1.15-.14-.62-.35-.78-.81-.79h-.33v1.93h-1.1v-4.85Zm1.1,2.11h.44c.55,0,.88-.28,.88-.71s-.31-.68-.82-.68c-.27,0-.42,.01-.5,.04v1.35Z"/><path class="cls-4" d="M127.69,70.1h-1.81v1.17h2.02v.91h-3.13v-4.92h3.03v.91h-1.92v1.02h1.81v.9Z"/><path class="cls-4" d="M97.22,75.11c.41-.07,.94-.11,1.5-.11,.94,0,1.55,.18,2.02,.53,.51,.38,.83,.99,.83,1.85,0,.94-.34,1.59-.81,1.99-.52,.43-1.31,.63-2.28,.63-.58,0-.99-.04-1.26-.07v-4.82Zm1.11,4c.09,.02,.25,.02,.39,.02,1.01,0,1.68-.55,1.68-1.72,0-1.02-.6-1.56-1.56-1.56-.24,0-.41,.02-.5,.04v3.22Z"/><path class="cls-4" d="M105.22,77.88h-1.81v1.17h2.02v.91h-3.13v-4.92h3.03v.91h-1.92v1.02h1.81v.9Z"/></g></g><g><path class="cls-4" d="M164.82,28.65c0,1.2-.04,1.74-.34,2.29-.58,1.16-2.14,2.24-4.89,2.24-2.19,0-3.71-.6-4.55-1.74-.52-.76-.68-1.1-.68-2.95v-9.46h3.59v9.08c0,1.28,.4,2.14,1.66,2.14s1.63-.72,1.63-2.07v-9.14h3.57v9.62Z"/><path class="cls-4" d="M174.69,32.94l-2.46-4.83c-.36-.72-.78-1.71-1.08-2.61,.08,.54,.2,1.82,.2,3.53v3.91h-3.39v-13.91h3.43l2.54,4.77c.4,.74,.82,1.72,1.15,2.66-.1-.82-.12-2.2-.12-3.11v-4.31h3.39v13.91h-3.67Z"/><path class="cls-4" d="M181.52,32.94v-13.91h3.65v13.91h-3.65Z"/><path class="cls-4" d="M194.25,32.94h-3.21l-4.73-13.91h3.93l1.76,5.53c.28,.86,.44,1.38,.65,2.61h.02c.22-1.12,.5-2,.74-2.71l1.97-5.43h3.77l-4.91,13.91Z"/><path class="cls-4" d="M200.39,32.94v-13.91h8.08l-.26,2.94h-4.25v2.33h3.47v2.83h-3.47v2.84h4.77v2.97h-8.34Z"/><path class="cls-4" d="M217.73,32.94l-1.46-3.89c-.54-1.44-.86-1.62-1.64-1.62v5.51h-3.57v-13.91h4.79c4.09,0,5.41,1.65,5.41,3.97s-1.26,3.61-2.9,3.89c.48,.14,1.06,.78,1.4,1.5,.46,.94,1.64,3.51,2.09,4.55h-4.13Zm-3.1-10.97v2.83h1.02c1.22,0,1.64-.58,1.64-1.52,0-1-.54-1.32-1.66-1.32h-1Z"/><path class="cls-4" d="M227.53,33.17c-2.1,0-3.73-.52-5.13-1.25l1.25-2.8c1,.58,2.5,1.12,3.91,1.12s1.96-.52,1.96-1.28c0-.62-.44-.88-1.4-1.14l-1.64-.42c-2.01-.53-3.39-1.63-3.39-4.03,0-2.76,2.27-4.59,5.38-4.59,1.94,0,3.73,.5,4.97,1.36l-1.72,2.53c-.94-.62-2.17-.98-3.13-.98s-1.42,.44-1.42,1c0,.46,.32,.92,1.36,1.18l1.42,.36c1.49,.38,3.65,1.06,3.65,3.85,0,3.33-2.47,5.09-6.09,5.09Z"/><path class="cls-4" d="M235.9,32.94v-13.91h3.65v13.91h-3.65Z"/><path class="cls-4" d="M251.63,31.26c-.88,1.06-2,1.68-3.87,1.68h-5.05v-13.91h4.91c.96,0,2.19,.08,3.31,.86,1.58,1.1,2.28,3.01,2.28,5.85,0,2.15-.32,4.03-1.58,5.52Zm-4.25-9.3h-1.1v8h1.2c1,0,1.79-.5,1.79-4.35,0-3.23-.82-3.65-1.89-3.65Z"/><path class="cls-4" d="M261.81,32.94l-.72-2.67h-3.29l-.76,2.67h-3.75l4.47-13.91h3.71l4.21,13.91h-3.87Zm-2.04-7.96c-.14-.62-.24-1.44-.26-1.96-.04,.52-.14,1.28-.38,2.22l-.56,2.27h1.8l-.6-2.53Z"/><path class="cls-4" d="M275.96,31.26c-.88,1.06-1.99,1.68-3.87,1.68h-5.05v-13.91h4.91c.96,0,2.19,.08,3.31,.86,1.58,1.1,2.28,3.01,2.28,5.85,0,2.15-.32,4.03-1.58,5.52Zm-4.25-9.3h-1.1v8h1.19c1,0,1.8-.5,1.8-4.35,0-3.23-.82-3.65-1.9-3.65Z"/><path class="cls-4" d="M290.84,32.94l-.72-2.67h-3.29l-.76,2.67h-3.75l4.47-13.91h3.71l4.21,13.91h-3.87Zm-2.04-7.96c-.14-.62-.24-1.44-.26-1.96-.04,.52-.14,1.28-.38,2.22l-.56,2.27h1.8l-.6-2.53Z"/><path class="cls-4" d="M300.92,33.17c-1.72,0-3.27-.52-4.55-1.92-1.1-1.22-1.6-3.03-1.6-5.01,0-1.74,.28-3.05,.96-4.31,1.18-2.18,3.19-3.15,5.63-3.15,1.42,0,2.91,.4,3.55,1.02l-1.52,2.64c-.62-.48-1.32-.74-2.07-.74-.62,0-1.2,.16-1.56,.54-.68,.7-.9,1.42-.9,3.06,0,2.29,.1,3.39,.68,4.07,.46,.54,1.04,.88,1.78,.88,.9,0,1.62-.22,2.39-.92l1.54,2.44c-.88,.82-2.29,1.42-4.33,1.42Z"/><path class="cls-4" d="M313.38,32.94l-1.46-3.89c-.54-1.44-.86-1.62-1.64-1.62v5.51h-3.57v-13.91h4.79c4.09,0,5.41,1.65,5.41,3.97s-1.25,3.61-2.89,3.89c.48,.14,1.06,.78,1.4,1.5,.46,.94,1.64,3.51,2.09,4.55h-4.13Zm-3.09-10.97v2.83h1.02c1.22,0,1.63-.58,1.63-1.52,0-1-.54-1.32-1.65-1.32h-1Z"/><path class="cls-4" d="M319.33,32.94v-13.91h8.08l-.26,2.94h-4.25v2.33h3.47v2.83h-3.47v2.84h4.77v2.97h-8.34Z"/><path class="cls-4" d="M338.93,31.26c-.88,1.06-2,1.68-3.87,1.68h-5.05v-13.91h4.91c.96,0,2.19,.08,3.31,.86,1.58,1.1,2.27,3.01,2.27,5.85,0,2.15-.32,4.03-1.57,5.52Zm-4.25-9.3h-1.1v8h1.2c1,0,1.8-.5,1.8-4.35,0-3.23-.82-3.65-1.9-3.65Z"/><path class="cls-4" d="M342.65,32.94v-13.91h3.65v13.91h-3.65Z"/><path class="cls-4" d="M358.18,21.98h-3.23v10.95h-3.61v-10.95h-3.23v-2.95h10.5l-.42,2.95Z"/><path class="cls-4" d="M365.72,32.94l-.72-2.67h-3.29l-.76,2.67h-3.75l4.47-13.91h3.71l4.21,13.91h-3.87Zm-2.03-7.96c-.14-.62-.24-1.44-.26-1.96-.04,.52-.14,1.28-.38,2.22l-.56,2.27h1.8l-.6-2.53Z"/><path class="cls-4" d="M379.87,31.26c-.88,1.06-1.99,1.68-3.87,1.68h-5.05v-13.91h4.91c.96,0,2.19,.08,3.31,.86,1.58,1.1,2.27,3.01,2.27,5.85,0,2.15-.32,4.03-1.58,5.52Zm-4.25-9.3h-1.1v8h1.2c1,0,1.79-.5,1.79-4.35,0-3.23-.81-3.65-1.89-3.65Z"/><path class="cls-4" d="M390.06,32.94l-.72-2.67h-3.29l-.75,2.67h-3.75l4.47-13.91h3.71l4.21,13.91h-3.87Zm-2.04-7.96c-.14-.62-.24-1.44-.26-1.96-.04,.52-.14,1.28-.38,2.22l-.56,2.27h1.8l-.6-2.53Z"/></g><rect class="cls-4" x="77.98" y="11.94" width=".6" height="67.81"/><rect class="cls-4" x="141.9" y="11.94" width=".6" height="67.81"/><rect class="cls-4" x="153.01" y="41.15" width="242.54" height=".56"/></g><g><path class="cls-4" d="M107.94,79.97v-.7l.63-.57c1.09-.97,1.61-1.53,1.62-2.1,0-.4-.23-.72-.8-.72-.43,0-.8,.21-1.06,.4l-.33-.82c.36-.28,.95-.51,1.61-.51,1.12,0,1.73,.65,1.73,1.54,0,.83-.59,1.5-1.31,2.13l-.45,.38v.02h1.87v.95h-3.5Z"/><path class="cls-4" d="M115.64,77.48c0,1.52-.61,2.57-1.87,2.57s-1.84-1.15-1.84-2.54c0-1.43,.6-2.56,1.87-2.56s1.84,1.18,1.84,2.53Zm-2.56,.03c0,1.13,.27,1.67,.71,1.67s.69-.56,.69-1.69-.24-1.67-.7-1.67c-.42,0-.71,.53-.71,1.69Z"/><path class="cls-4" d="M116.07,79.97v-.7l.63-.57c1.09-.97,1.61-1.53,1.62-2.1,0-.4-.23-.72-.8-.72-.43,0-.8,.21-1.06,.4l-.33-.82c.36-.28,.95-.51,1.61-.51,1.12,0,1.73,.65,1.73,1.54,0,.83-.59,1.5-1.31,2.13l-.45,.38v.02h1.87v.95h-3.5Z"/><path class="cls-4" d="M120.93,77.42c-.48-.25-.71-.65-.71-1.09,0-.83,.75-1.39,1.74-1.39,1.15,0,1.63,.67,1.63,1.27,0,.43-.23,.84-.72,1.09v.02c.49,.18,.91,.59,.91,1.22,0,.9-.75,1.5-1.9,1.5-1.25,0-1.83-.71-1.83-1.37,0-.59,.34-1,.88-1.24h0Zm1.67,1.2c0-.43-.33-.69-.77-.81-.38,.11-.6,.38-.6,.74,0,.36,.27,.69,.7,.69,.4,0,.68-.27,.68-.61Zm-1.29-2.34c0,.33,.3,.55,.69,.67,.27-.08,.5-.32,.5-.62s-.17-.61-.6-.61c-.39,0-.59,.27-.59,.57Z"/></g><g><path class="cls-4" d="M399.99,0L6.8,.23C3.04,.23,0,3.27,0,7.03L.04,81.8c0,3.75,3.05,6.8,6.8,6.79l393.19-.23c3.75,0,6.79-3.05,6.79-6.8l-.04-74.77C406.78,3.04,403.74,0,399.99,0Zm5.64,81.56c0,3.09-2.51,5.6-5.59,5.6l-393.19,.23c-3.09,0-5.6-2.51-5.61-5.6l-.04-74.77c0-3.09,2.51-5.6,5.6-5.6l393.19-.23c3.09,0,5.6,2.51,5.6,5.59l.04,74.77Z"/><g><path class="cls-4" d="M181.08,57.88c-.35,.13-1.05,.33-1.87,.33-.92,0-1.67-.23-2.27-.8-.52-.5-.85-1.31-.85-2.26,0-1.81,1.25-3.13,3.28-3.13,.7,0,1.26,.15,1.52,.28l-.2,.64c-.32-.15-.73-.26-1.34-.26-1.48,0-2.44,.92-2.44,2.44s.92,2.45,2.34,2.45c.51,0,.86-.07,1.04-.16v-1.81h-1.22v-.63h2v2.91Z"/><path class="cls-4" d="M185.71,55.3h-2.35v2.18h2.63v.66h-3.42v-6.06h3.28v.66h-2.49v1.91h2.35v.65Z"/><path class="cls-4" d="M187.22,57.19c.35,.22,.85,.4,1.39,.4,.8,0,1.27-.42,1.27-1.03,0-.56-.32-.89-1.14-1.2-.99-.36-1.6-.88-1.6-1.73,0-.94,.78-1.65,1.96-1.65,.61,0,1.07,.14,1.33,.3l-.22,.64c-.19-.12-.59-.29-1.14-.29-.83,0-1.14,.49-1.14,.91,0,.57,.37,.85,1.2,1.17,1.03,.4,1.54,.89,1.54,1.78,0,.93-.68,1.75-2.11,1.75-.58,0-1.22-.18-1.55-.4l.21-.66Z"/><path class="cls-4" d="M193.22,52.75h-1.84v-.67h4.49v.67h-1.85v5.39h-.79v-5.39Z"/><path class="cls-4" d="M197.63,52.09v6.06h-.79v-6.06h.79Z"/><path class="cls-4" d="M204.49,55.05c0,2.08-1.27,3.19-2.81,3.19s-2.72-1.25-2.72-3.08c0-1.92,1.19-3.18,2.81-3.18s2.73,1.27,2.73,3.08Zm-4.71,.09c0,1.3,.7,2.46,1.94,2.46s1.94-1.14,1.94-2.52c0-1.21-.63-2.47-1.93-2.47s-1.95,1.21-1.95,2.53Zm3.26-4.45l-1.15,1.05h-.64l.84-1.05h.95Z"/><path class="cls-4" d="M205.82,58.15v-6.06h.86l1.93,3.07c.44,.71,.8,1.35,1.08,1.97h.03c-.07-.82-.09-1.56-.09-2.5v-2.54h.74v6.06h-.79l-1.92-3.08c-.42-.67-.83-1.37-1.12-2.02h-.03c.04,.77,.05,1.5,.05,2.51v2.59h-.74Z"/><path class="cls-4" d="M215.06,52.09v6.06h-.79v-6.06h.79Z"/><path class="cls-4" d="M216.74,58.15v-6.06h.86l1.93,3.07c.44,.71,.8,1.35,1.08,1.97h.03c-.07-.82-.09-1.56-.09-2.5v-2.54h.74v6.06h-.79l-1.92-3.08c-.42-.67-.83-1.37-1.12-2.02h-.03c.04,.77,.05,1.5,.05,2.51v2.59h-.74Z"/><path class="cls-4" d="M222.87,57.19c.35,.22,.85,.4,1.39,.4,.8,0,1.27-.42,1.27-1.03,0-.56-.32-.89-1.14-1.2-.99-.36-1.6-.88-1.6-1.73,0-.94,.78-1.65,1.96-1.65,.61,0,1.07,.14,1.33,.3l-.22,.64c-.19-.12-.59-.29-1.14-.29-.83,0-1.14,.49-1.14,.91,0,.57,.37,.85,1.2,1.17,1.03,.4,1.54,.89,1.54,1.78,0,.93-.68,1.75-2.11,1.75-.58,0-1.22-.18-1.55-.4l.21-.66Z"/><path class="cls-4" d="M228.87,52.75h-1.84v-.67h4.49v.67h-1.85v5.39h-.79v-5.39Z"/><path class="cls-4" d="M233.29,52.09v6.06h-.79v-6.06h.79Z"/><path class="cls-4" d="M236.12,52.75h-1.84v-.67h4.49v.67h-1.85v5.39h-.79v-5.39Z"/><path class="cls-4" d="M240.53,52.09v3.6c0,1.35,.6,1.92,1.41,1.92,.89,0,1.47-.59,1.47-1.92v-3.6h.79v3.54c0,1.86-.98,2.62-2.29,2.62-1.24,0-2.18-.7-2.18-2.59v-3.57h.79Z"/><path class="cls-4" d="M250.11,57.96c-.28,.14-.86,.29-1.6,.29-1.71,0-2.99-1.08-2.99-3.07s1.29-3.18,3.17-3.18c.75,0,1.23,.16,1.44,.27l-.2,.64c-.29-.14-.71-.25-1.21-.25-1.42,0-2.36,.91-2.36,2.5,0,1.49,.85,2.44,2.32,2.44,.49,0,.97-.1,1.29-.25l.15,.63Z"/><path class="cls-4" d="M252.2,52.09v6.06h-.79v-6.06h.79Z"/><path class="cls-4" d="M259.06,55.05c0,2.08-1.27,3.19-2.81,3.19s-2.72-1.25-2.72-3.08c0-1.92,1.19-3.18,2.81-3.18s2.73,1.27,2.73,3.08Zm-4.71,.09c0,1.3,.7,2.46,1.94,2.46s1.94-1.14,1.94-2.52c0-1.21-.63-2.47-1.93-2.47s-1.95,1.21-1.95,2.53Z"/><path class="cls-4" d="M260.39,58.15v-6.06h.86l1.93,3.07c.44,.71,.8,1.35,1.08,1.97h.03c-.07-.82-.09-1.56-.09-2.5v-2.54h.74v6.06h-.79l-1.92-3.08c-.42-.67-.83-1.37-1.12-2.02h-.03c.04,.77,.05,1.5,.05,2.51v2.59h-.74Z"/><path class="cls-4" d="M267.6,56.24l-.63,1.91h-.81l2.07-6.06h.93l2.07,6.06h-.84l-.65-1.91h-2.15Zm2-.61l-.6-1.74c-.13-.4-.23-.76-.32-1.11h-.02c-.09,.35-.18,.73-.31,1.1l-.59,1.75h1.83Z"/><path class="cls-4" d="M272.43,52.09h.79v5.4h2.59v.66h-3.38v-6.06Z"/><path class="cls-4" d="M278.93,55.79c0-.33,.23-.57,.54-.57s.53,.23,.53,.57c0,.31-.22,.56-.55,.56-.31,0-.52-.24-.52-.56Z"/><path class="cls-4" d="M283.61,52.18c.48-.08,1.04-.13,1.66-.13,1.12,0,1.92,.27,2.45,.76,.55,.49,.86,1.2,.86,2.18s-.32,1.8-.87,2.36c-.58,.57-1.51,.87-2.69,.87-.57,0-1.03-.03-1.42-.07v-5.95Zm.78,5.36c.2,.03,.49,.04,.79,.04,1.68,0,2.58-.93,2.58-2.57,0-1.43-.8-2.34-2.45-2.34-.4,0-.71,.04-.92,.08v4.79Z"/><path class="cls-4" d="M295.1,55.05c0,2.08-1.27,3.19-2.81,3.19s-2.72-1.25-2.72-3.08c0-1.92,1.19-3.18,2.81-3.18s2.73,1.27,2.73,3.08Zm-4.71,.09c0,1.3,.7,2.46,1.94,2.46s1.94-1.14,1.94-2.52c0-1.21-.63-2.47-1.93-2.47s-1.95,1.21-1.95,2.53Z"/><path class="cls-4" d="M300.65,57.96c-.28,.14-.86,.29-1.6,.29-1.71,0-2.99-1.08-2.99-3.07s1.29-3.18,3.17-3.18c.75,0,1.23,.16,1.44,.27l-.2,.64c-.29-.14-.71-.25-1.21-.25-1.42,0-2.36,.91-2.36,2.5,0,1.49,.85,2.44,2.32,2.44,.49,0,.97-.1,1.29-.25l.15,.63Z"/><path class="cls-4" d="M305.09,55.3h-2.35v2.18h2.63v.66h-3.42v-6.06h3.28v.66h-2.49v1.91h2.35v.65Z"/><path class="cls-4" d="M306.7,58.15v-6.06h.86l1.93,3.07c.44,.71,.8,1.35,1.08,1.97h.03c-.07-.82-.09-1.56-.09-2.5v-2.54h.74v6.06h-.79l-1.92-3.08c-.42-.67-.83-1.37-1.12-2.02h-.03c.04,.77,.05,1.5,.05,2.51v2.59h-.74Z"/><path class="cls-4" d="M317.15,57.96c-.28,.14-.86,.29-1.6,.29-1.71,0-2.99-1.08-2.99-3.07s1.29-3.18,3.17-3.18c.75,0,1.23,.16,1.44,.27l-.2,.64c-.29-.14-.71-.25-1.21-.25-1.42,0-2.36,.91-2.36,2.5,0,1.49,.85,2.44,2.32,2.44,.49,0,.97-.1,1.29-.25l.15,.63Z"/><path class="cls-4" d="M319.24,52.09v6.06h-.79v-6.06h.79Z"/><path class="cls-4" d="M321.9,56.24l-.63,1.91h-.81l2.07-6.06h.93l2.07,6.06h-.84l-.65-1.91h-2.15Zm2-.61l-.6-1.74c-.13-.4-.23-.76-.32-1.11h-.02c-.09,.35-.18,.73-.31,1.1l-.59,1.75h1.83Z"/><path class="cls-4" d="M328.96,52.16c.38-.06,.87-.12,1.5-.12,.77,0,1.34,.18,1.7,.5,.32,.29,.53,.73,.53,1.27s-.16,.98-.47,1.3c-.42,.44-1.09,.67-1.85,.67-.23,0-.45,0-.63-.05v2.43h-.78v-5.99Zm.78,2.92c.17,.04,.39,.06,.65,.06,.94,0,1.52-.47,1.52-1.29s-.58-1.2-1.43-1.2c-.34,0-.6,.03-.74,.06v2.36Z"/><path class="cls-4" d="M334.06,52.17c.4-.07,.97-.13,1.5-.13,.84,0,1.38,.16,1.75,.49,.3,.27,.48,.68,.48,1.16,0,.79-.5,1.32-1.13,1.54v.03c.46,.16,.74,.59,.88,1.22,.2,.85,.34,1.43,.47,1.66h-.81c-.1-.18-.23-.69-.4-1.45-.18-.84-.51-1.15-1.22-1.18h-.74v2.63h-.78v-5.98Zm.78,2.76h.8c.84,0,1.37-.46,1.37-1.15,0-.78-.57-1.12-1.39-1.12-.38,0-.64,.03-.77,.06v2.21Z"/><path class="cls-4" d="M342.34,55.3h-2.35v2.18h2.63v.66h-3.42v-6.06h3.28v.66h-2.49v1.91h2.35v.65Z"/><path class="cls-4" d="M348.57,57.88c-.35,.13-1.05,.33-1.87,.33-.92,0-1.67-.23-2.27-.8-.52-.5-.85-1.31-.85-2.26,0-1.81,1.25-3.13,3.28-3.13,.7,0,1.26,.15,1.52,.28l-.2,.64c-.32-.15-.73-.26-1.34-.26-1.48,0-2.44,.92-2.44,2.44s.92,2.45,2.34,2.45c.51,0,.86-.07,1.04-.16v-1.81h-1.22v-.63h2v2.91Z"/><path class="cls-4" d="M350.07,52.17c.4-.07,.97-.13,1.5-.13,.84,0,1.38,.16,1.75,.49,.3,.27,.48,.68,.48,1.16,0,.79-.5,1.32-1.13,1.54v.03c.46,.16,.74,.59,.88,1.22,.2,.85,.34,1.43,.47,1.66h-.81c-.1-.18-.23-.69-.4-1.45-.18-.84-.51-1.15-1.22-1.18h-.74v2.63h-.78v-5.98Zm.78,2.76h.8c.84,0,1.37-.46,1.37-1.15,0-.78-.57-1.12-1.39-1.12-.38,0-.64,.03-.77,.06v2.21Z"/><path class="cls-4" d="M356.25,56.24l-.63,1.91h-.81l2.07-6.06h.93l2.07,6.06h-.84l-.65-1.91h-2.15Zm2-.61l-.6-1.74c-.13-.4-.23-.76-.32-1.11h-.02c-.09,.35-.18,.73-.31,1.1l-.59,1.75h1.83Z"/><path class="cls-4" d="M361.09,52.18c.48-.08,1.04-.13,1.66-.13,1.12,0,1.92,.27,2.45,.76,.55,.49,.86,1.2,.86,2.18s-.32,1.8-.87,2.36c-.58,.57-1.51,.87-2.69,.87-.57,0-1.03-.03-1.42-.07v-5.95Zm.78,5.36c.2,.03,.49,.04,.79,.04,1.68,0,2.58-.93,2.58-2.57,0-1.43-.8-2.34-2.45-2.34-.4,0-.71,.04-.92,.08v4.79Z"/><path class="cls-4" d="M372.57,55.05c0,2.08-1.27,3.19-2.81,3.19s-2.72-1.25-2.72-3.08c0-1.92,1.19-3.18,2.81-3.18s2.73,1.27,2.73,3.08Zm-4.71,.09c0,1.3,.7,2.46,1.94,2.46s1.94-1.14,1.94-2.52c0-1.21-.63-2.47-1.93-2.47s-1.95,1.21-1.95,2.53Z"/><path class="cls-4" d="M153.29,62.88v6.06h-.79v-6.06h.79Z"/><path class="cls-4" d="M154.97,68.94v-6.06h.86l1.93,3.07c.44,.71,.8,1.35,1.08,1.97h.03c-.07-.82-.09-1.56-.09-2.5v-2.54h.74v6.06h-.79l-1.92-3.08c-.42-.67-.83-1.37-1.12-2.02h-.03c.04,.77,.05,1.5,.05,2.51v2.59h-.74Z"/><path class="cls-4" d="M162.54,68.94l-1.99-6.06h.85l.94,2.99c.25,.82,.48,1.56,.65,2.27h.02c.17-.7,.41-1.47,.69-2.26l1.02-2.99h.84l-2.17,6.06h-.86Z"/><path class="cls-4" d="M169.67,66.1h-2.35v2.18h2.63v.66h-3.42v-6.06h3.28v.66h-2.49v1.91h2.35v.65Z"/><path class="cls-4" d="M171.18,67.98c.35,.22,.85,.4,1.39,.4,.8,0,1.27-.42,1.27-1.03,0-.56-.32-.89-1.14-1.2-.99-.36-1.6-.88-1.6-1.73,0-.94,.78-1.65,1.96-1.65,.61,0,1.07,.14,1.33,.3l-.22,.64c-.19-.12-.59-.29-1.14-.29-.83,0-1.14,.49-1.14,.91,0,.57,.37,.85,1.2,1.17,1.03,.4,1.54,.89,1.54,1.78,0,.93-.68,1.75-2.11,1.75-.58,0-1.22-.18-1.55-.4l.21-.66Z"/><path class="cls-4" d="M177.17,63.54h-1.84v-.67h4.49v.67h-1.85v5.39h-.79v-5.39Z"/><path class="cls-4" d="M181.59,62.88v6.06h-.79v-6.06h.79Z"/><path class="cls-4" d="M187.89,68.67c-.35,.13-1.05,.33-1.87,.33-.92,0-1.67-.23-2.27-.8-.52-.5-.85-1.31-.85-2.26,0-1.81,1.25-3.13,3.28-3.13,.7,0,1.26,.15,1.52,.28l-.2,.64c-.32-.15-.73-.26-1.34-.26-1.48,0-2.44,.92-2.44,2.44s.92,2.45,2.34,2.45c.51,0,.86-.07,1.04-.16v-1.81h-1.22v-.63h2v2.91Z"/><path class="cls-4" d="M190.38,67.03l-.63,1.91h-.81l2.07-6.06h.93l2.07,6.06h-.84l-.65-1.91h-2.15Zm2-.61l-.6-1.74c-.13-.4-.23-.76-.32-1.11h-.02c-.09,.35-.18,.73-.31,1.1l-.59,1.75h1.83Z"/><path class="cls-4" d="M199.31,68.75c-.28,.14-.86,.29-1.6,.29-1.71,0-2.99-1.08-2.99-3.07s1.29-3.18,3.17-3.18c.75,0,1.23,.16,1.44,.27l-.2,.64c-.29-.14-.71-.25-1.21-.25-1.42,0-2.36,.91-2.36,2.5,0,1.49,.85,2.44,2.32,2.44,.49,0,.97-.1,1.29-.25l.15,.63Z"/><path class="cls-4" d="M201.39,62.88v6.06h-.79v-6.06h.79Z"/><path class="cls-4" d="M208.25,65.84c0,2.08-1.27,3.19-2.81,3.19s-2.72-1.25-2.72-3.08c0-1.92,1.19-3.18,2.81-3.18s2.73,1.27,2.73,3.08Zm-4.71,.09c0,1.3,.7,2.46,1.94,2.46s1.94-1.14,1.94-2.52c0-1.21-.63-2.47-1.93-2.47s-1.95,1.21-1.95,2.53Zm3.26-4.45l-1.15,1.05h-.64l.84-1.05h.95Z"/><path class="cls-4" d="M209.58,68.94v-6.06h.86l1.93,3.07c.44,.71,.8,1.35,1.08,1.97h.03c-.07-.82-.09-1.56-.09-2.5v-2.54h.74v6.06h-.79l-1.92-3.08c-.42-.67-.83-1.37-1.12-2.02h-.03c.04,.77,.05,1.5,.05,2.51v2.59h-.74Z"/><path class="cls-4" d="M217.75,66.58c0-.33,.23-.57,.54-.57s.53,.23,.53,.57c0,.31-.22,.56-.55,.56-.31,0-.52-.24-.52-.56Z"/><path class="cls-4" d="M222.43,62.95c.38-.06,.87-.12,1.5-.12,.77,0,1.34,.18,1.7,.5,.32,.29,.53,.73,.53,1.27s-.16,.98-.47,1.3c-.42,.44-1.09,.67-1.85,.67-.23,0-.45,0-.63-.05v2.43h-.78v-5.99Zm.78,2.92c.17,.04,.39,.06,.65,.06,.94,0,1.52-.47,1.52-1.29s-.58-1.2-1.43-1.2c-.34,0-.6,.03-.74,.06v2.36Z"/><path class="cls-4" d="M232.71,65.84c0,2.08-1.27,3.19-2.81,3.19s-2.72-1.25-2.72-3.08c0-1.92,1.19-3.18,2.81-3.18s2.73,1.27,2.73,3.08Zm-4.71,.09c0,1.3,.7,2.46,1.94,2.46s1.94-1.14,1.94-2.52c0-1.21-.63-2.47-1.93-2.47s-1.95,1.21-1.95,2.53Z"/><path class="cls-4" d="M233.94,67.98c.35,.22,.85,.4,1.39,.4,.8,0,1.27-.42,1.27-1.03,0-.56-.32-.89-1.14-1.2-.99-.36-1.6-.88-1.6-1.73,0-.94,.78-1.65,1.96-1.65,.61,0,1.07,.14,1.33,.3l-.22,.64c-.19-.12-.59-.29-1.14-.29-.83,0-1.14,.49-1.14,.91,0,.57,.37,.85,1.2,1.17,1.03,.4,1.54,.89,1.54,1.78,0,.93-.68,1.75-2.11,1.75-.58,0-1.22-.18-1.55-.4l.21-.66Z"/><path class="cls-4" d="M239.94,63.54h-1.84v-.67h4.49v.67h-1.85v5.39h-.79v-5.39Z"/><path class="cls-4" d="M247.95,68.67c-.35,.13-1.05,.33-1.87,.33-.92,0-1.67-.23-2.27-.8-.52-.5-.85-1.31-.85-2.26,0-1.81,1.25-3.13,3.28-3.13,.7,0,1.26,.15,1.52,.28l-.2,.64c-.32-.15-.73-.26-1.34-.26-1.48,0-2.44,.92-2.44,2.44s.92,2.45,2.34,2.45c.51,0,.86-.07,1.04-.16v-1.81h-1.22v-.63h2v2.91Z"/><path class="cls-4" d="M249.45,62.96c.4-.07,.97-.13,1.5-.13,.84,0,1.38,.16,1.75,.49,.3,.27,.48,.68,.48,1.16,0,.79-.5,1.32-1.13,1.54v.03c.46,.16,.74,.59,.88,1.22,.2,.85,.34,1.43,.47,1.66h-.81c-.1-.18-.23-.69-.4-1.45-.18-.84-.51-1.15-1.22-1.18h-.74v2.63h-.78v-5.98Zm.78,2.76h.8c.84,0,1.37-.46,1.37-1.15,0-.78-.57-1.12-1.39-1.12-.38,0-.64,.03-.77,.06v2.21Z"/><path class="cls-4" d="M255.63,67.03l-.63,1.91h-.81l2.07-6.06h.93l2.07,6.06h-.84l-.65-1.91h-2.15Zm2-.61l-.6-1.74c-.13-.4-.23-.76-.32-1.11h-.02c-.09,.35-.18,.73-.31,1.1l-.59,1.75h1.83Z"/><path class="cls-4" d="M260.47,62.97c.48-.08,1.04-.13,1.66-.13,1.12,0,1.92,.27,2.45,.76,.55,.49,.86,1.2,.86,2.18s-.32,1.8-.87,2.36c-.58,.57-1.51,.87-2.69,.87-.57,0-1.03-.03-1.42-.07v-5.95Zm.78,5.36c.2,.03,.49,.04,.79,.04,1.68,0,2.58-.93,2.58-2.57,0-1.43-.8-2.34-2.45-2.34-.4,0-.71,.04-.92,.08v4.79Z"/><path class="cls-4" d="M271.95,65.84c0,2.08-1.27,3.19-2.81,3.19s-2.72-1.25-2.72-3.08c0-1.92,1.19-3.18,2.81-3.18s2.73,1.27,2.73,3.08Zm-4.71,.09c0,1.3,.7,2.46,1.94,2.46s1.94-1.14,1.94-2.52c0-1.21-.63-2.47-1.93-2.47s-1.95,1.21-1.95,2.53Z"/><path class="cls-4" d="M275.22,66.58c0-.33,.23-.57,.54-.57s.53,.23,.53,.57c0,.31-.22,.56-.55,.56-.31,0-.52-.24-.52-.56Z"/><path class="cls-4" d="M280.91,68.94l-1.99-6.06h.85l.94,2.99c.25,.82,.48,1.56,.65,2.27h.02c.17-.7,.41-1.47,.69-2.26l1.02-2.99h.84l-2.17,6.06h-.86Z"/><path class="cls-4" d="M285.69,62.88v6.06h-.79v-6.06h.79Z"/><path class="cls-4" d="M287.37,68.94v-6.06h.86l1.93,3.07c.44,.71,.8,1.35,1.08,1.97h.03c-.07-.82-.09-1.56-.09-2.5v-2.54h.74v6.06h-.79l-1.92-3.08c-.42-.67-.83-1.37-1.12-2.02h-.03c.04,.77,.05,1.5,.05,2.51v2.59h-.74Z"/><path class="cls-4" d="M297.83,68.75c-.28,.14-.86,.29-1.6,.29-1.71,0-2.99-1.08-2.99-3.07s1.29-3.18,3.17-3.18c.75,0,1.23,.16,1.44,.27l-.2,.64c-.29-.14-.71-.25-1.21-.25-1.42,0-2.36,.91-2.36,2.5,0,1.49,.85,2.44,2.32,2.44,.49,0,.97-.1,1.29-.25l.15,.63Z"/><path class="cls-4" d="M299.92,62.88v3.6c0,1.35,.6,1.92,1.41,1.92,.89,0,1.47-.59,1.47-1.92v-3.6h.79v3.54c0,1.86-.98,2.62-2.29,2.62-1.24,0-2.18-.7-2.18-2.59v-3.57h.79Z"/><path class="cls-4" d="M305.26,62.88h.79v5.4h2.59v.66h-3.38v-6.06Z"/><path class="cls-4" d="M310.81,67.03l-.63,1.91h-.81l2.07-6.06h.93l2.07,6.06h-.84l-.65-1.91h-2.15Zm2-.61l-.6-1.74c-.13-.4-.23-.76-.32-1.11h-.02c-.09,.35-.18,.73-.31,1.1l-.59,1.75h1.83Z"/><path class="cls-4" d="M319.74,68.75c-.28,.14-.86,.29-1.6,.29-1.71,0-2.99-1.08-2.99-3.07s1.29-3.18,3.17-3.18c.75,0,1.23,.16,1.44,.27l-.2,.64c-.29-.14-.71-.25-1.21-.25-1.42,0-2.36,.91-2.36,2.5,0,1.49,.85,2.44,2.32,2.44,.49,0,.97-.1,1.29-.25l.15,.63Z"/><path class="cls-4" d="M321.82,62.88v6.06h-.79v-6.06h.79Z"/><path class="cls-4" d="M328.68,65.84c0,2.08-1.27,3.19-2.81,3.19s-2.72-1.25-2.72-3.08c0-1.92,1.19-3.18,2.81-3.18s2.73,1.27,2.73,3.08Zm-4.71,.09c0,1.3,.7,2.46,1.94,2.46s1.94-1.14,1.94-2.52c0-1.21-.63-2.47-1.93-2.47s-1.95,1.21-1.95,2.53Zm3.26-4.45l-1.15,1.05h-.64l.84-1.05h.95Z"/><path class="cls-4" d="M330.01,68.94v-6.06h.86l1.93,3.07c.44,.71,.8,1.35,1.08,1.97h.03c-.07-.82-.09-1.56-.09-2.5v-2.54h.74v6.06h-.79l-1.92-3.08c-.42-.67-.83-1.37-1.12-2.02h-.03c.04,.77,.05,1.5,.05,2.51v2.59h-.74Z"/><path class="cls-4" d="M342.69,68.75c-.28,.14-.86,.29-1.6,.29-1.71,0-2.99-1.08-2.99-3.07s1.29-3.18,3.17-3.18c.75,0,1.23,.16,1.44,.27l-.2,.64c-.29-.14-.71-.25-1.21-.25-1.42,0-2.36,.91-2.36,2.5,0,1.49,.85,2.44,2.32,2.44,.49,0,.97-.1,1.29-.25l.15,.63Z"/><path class="cls-4" d="M348.98,65.84c0,2.08-1.27,3.19-2.81,3.19s-2.72-1.25-2.72-3.08c0-1.92,1.19-3.18,2.81-3.18s2.73,1.27,2.73,3.08Zm-4.71,.09c0,1.3,.7,2.46,1.94,2.46s1.94-1.14,1.94-2.52c0-1.21-.63-2.47-1.93-2.47s-1.95,1.21-1.95,2.53Z"/><path class="cls-4" d="M350.32,68.94v-6.06h.86l1.93,3.07c.44,.71,.8,1.35,1.08,1.97h.03c-.07-.82-.09-1.56-.09-2.5v-2.54h.74v6.06h-.79l-1.92-3.08c-.42-.67-.83-1.37-1.12-2.02h-.03c.04,.77,.05,1.5,.05,2.51v2.59h-.74Z"/><path class="cls-4" d="M361.9,66.1h-2.35v2.18h2.63v.66h-3.42v-6.06h3.28v.66h-2.49v1.91h2.35v.65Z"/><path class="cls-4" d="M363.5,62.88h.79v5.4h2.59v.66h-3.38v-6.06Z"/><path class="cls-4" d="M375.39,66.28c-.05-.85-.1-1.87-.1-2.62h-.02c-.22,.7-.46,1.47-.76,2.3l-1.07,2.94h-.59l-.99-2.89c-.29-.86-.52-1.64-.69-2.36h-.02c-.02,.76-.06,1.76-.12,2.68l-.16,2.6h-.75l.42-6.06h1l1.03,2.93c.25,.75,.45,1.41,.61,2.04h.02c.16-.61,.38-1.28,.65-2.04l1.08-2.93h1l.38,6.06h-.77l-.14-2.66Z"/><path class="cls-4" d="M380.96,66.1h-2.35v2.18h2.63v.66h-3.42v-6.06h3.28v.66h-2.49v1.91h2.35v.65Z"/><path class="cls-4" d="M382.57,62.97c.48-.08,1.04-.13,1.66-.13,1.12,0,1.92,.27,2.45,.76,.55,.49,.86,1.2,.86,2.18s-.32,1.8-.87,2.36c-.58,.57-1.51,.87-2.69,.87-.57,0-1.03-.03-1.42-.07v-5.95Zm.78,5.36c.2,.03,.49,.04,.79,.04,1.68,0,2.58-.93,2.58-2.57,0-1.43-.8-2.34-2.45-2.34-.4,0-.71,.04-.92,.08v4.79Z"/><path class="cls-4" d="M389.66,62.88v6.06h-.79v-6.06h.79Z"/><path class="cls-4" d="M396.51,65.84c0,2.08-1.27,3.19-2.81,3.19s-2.72-1.25-2.72-3.08c0-1.92,1.19-3.18,2.81-3.18s2.73,1.27,2.73,3.08Zm-4.71,.09c0,1.3,.7,2.46,1.94,2.46s1.94-1.14,1.94-2.52c0-1.21-.63-2.47-1.93-2.47s-1.95,1.21-1.95,2.53Z"/></g><g><path class="cls-4" d="M117.93,15.56c-.68-.04-1.4,0-2.37,.08-5.41,.44-7.82,3.21-8.5,6.22h.12c1.28-1.28,3.13-2.04,5.53-2.04,4.37,0,8.06,3.09,8.06,8.5s-3.97,9.42-9.59,9.42c-6.98,0-10.39-5.17-10.39-11.39,0-4.89,1.8-8.98,4.65-11.63,2.57-2.37,5.98-3.61,10.03-3.81,1.12-.12,1.89-.08,2.45-.04v4.69Zm-3.33,13.07c0-2.41-1.28-4.49-3.89-4.49-1.64,0-3.01,1-3.57,2.29-.2,.36-.28,.84-.28,1.56,.12,2.77,1.44,5.25,4.25,5.25,2.13,0,3.49-1.97,3.49-4.61Z"/><g><path class="cls-4" d="M97.33,55.85l-1.02-3.26h-3.99l-1,3.26h-1.67l3.77-11.53h2.01l3.71,11.53h-1.8Zm-2.93-9.93h-.1c-.18,.65-1.39,4.78-1.59,5.33h3.24c-.2-.54-1.4-4.66-1.55-5.33Z"/><path class="cls-4" d="M106.51,55.85l-3.03-6.12c-.59-1.19-1.18-2.49-1.4-3.16l-.1,.02c.08,.99,.12,2.14,.14,3.21l.07,6.05h-1.62v-11.51h1.87l3.21,6.35c.49,.95,1.05,2.44,1.14,2.75l.1-.03c-.03-.33-.17-2.15-.17-3.42l-.03-5.65h1.55v11.51h-1.73Zm-1.21-12.49c-1.01,0-1.18-.7-2.15-.7-.52,0-.77,.25-1.1,.64l-.52-.87c.53-.7,1-1.08,1.95-1.08,1.02,0,1.19,.69,2.16,.69,.52,0,.79-.27,1.12-.64l.52,.87c-.53,.69-1.02,1.1-1.98,1.1Z"/><path class="cls-4" d="M115.32,56.04c-3.18,0-4.75-2.52-4.75-5.98,0-3.8,1.85-5.92,4.66-5.92,3.39,0,4.73,2.83,4.73,6.04,0,3.53-1.72,5.87-4.64,5.87Zm-.08-10.65c-2.04,0-2.86,1.52-2.86,4.48s.69,4.94,2.94,4.94c1.79,0,2.81-1.28,2.81-4.5s-.72-4.93-2.89-4.93Z"/><path class="cls-4" d="M125.43,56.07c-1.31,0-2.59-.34-3.7-1.02l.63-1.24c1,.62,1.96,.95,3.11,.95,1.5,0,2.5-.77,2.5-2.01,0-.93-.62-1.58-1.91-1.95l-1.2-.35c-1.74-.5-2.72-1.34-2.72-2.98,0-1.99,1.54-3.35,3.81-3.35,1.27,0,2.51,.37,3.52,1.09l-.72,1.14c-1.07-.65-1.79-.91-2.74-.91-1.29,0-2.09,.67-2.09,1.74,0,.82,.47,1.28,1.71,1.65l1.35,.4c1.54,.45,2.81,1.45,2.81,3.25,0,1.6-1.32,3.57-4.35,3.57Z"/></g><g><path class="cls-4" d="M100.65,59.49v1.89h1.83v-1.89h1.11v4.92h-1.11v-2.06h-1.83v2.06h-1.11v-4.92h1.11Z"/><path class="cls-4" d="M105.7,63.14l-.35,1.26h-1.15l1.5-4.92h1.46l1.53,4.92h-1.2l-.38-1.26h-1.41Zm1.25-.83l-.31-1.04c-.09-.29-.18-.66-.25-.95h-.01c-.07,.29-.15,.66-.23,.95l-.29,1.04h1.09Z"/><path class="cls-4" d="M109.38,63.26c.29,.15,.76,.31,1.23,.31,.51,0,.78-.21,.78-.53s-.23-.48-.82-.69c-.82-.29-1.36-.74-1.36-1.46,0-.84,.71-1.47,1.86-1.47,.56,0,.96,.11,1.25,.25l-.25,.89c-.19-.1-.55-.23-1.02-.23s-.71,.23-.71,.47c0,.31,.27,.45,.91,.69,.87,.32,1.27,.77,1.27,1.47,0,.82-.63,1.52-1.98,1.52-.56,0-1.12-.15-1.39-.31l.23-.91Z"/><path class="cls-4" d="M114.23,60.42h-1.33v-.93h3.78v.93h-1.34v3.98h-1.11v-3.98Z"/><path class="cls-4" d="M117.89,63.14l-.35,1.26h-1.15l1.5-4.92h1.46l1.53,4.92h-1.2l-.38-1.26h-1.41Zm1.25-.83l-.31-1.04c-.09-.29-.18-.66-.25-.95h-.01c-.07,.29-.15,.66-.23,.95l-.29,1.04h1.09Z"/><path class="cls-4" d="M92.41,67.34c.41-.07,.94-.11,1.5-.11,.94,0,1.55,.18,2.02,.53,.51,.38,.83,.99,.83,1.85,0,.94-.34,1.59-.81,1.99-.52,.43-1.31,.63-2.28,.63-.58,0-.99-.04-1.26-.07v-4.82Zm1.11,4c.09,.02,.25,.02,.39,.02,1.01,0,1.68-.55,1.68-1.72,0-1.02-.6-1.56-1.56-1.56-.24,0-.41,.02-.5,.04v3.22Z"/><path class="cls-4" d="M98.6,67.26v4.92h-1.11v-4.92h1.11Z"/><path class="cls-4" d="M103.16,72.05c-.2,.1-.66,.21-1.25,.21-1.7,0-2.57-1.07-2.57-2.47,0-1.68,1.2-2.6,2.68-2.6,.58,0,1.01,.11,1.21,.22l-.23,.88c-.22-.1-.53-.18-.93-.18-.88,0-1.56,.53-1.56,1.63,0,.99,.58,1.6,1.57,1.6,.34,0,.71-.07,.93-.16l.16,.88Z"/><path class="cls-4" d="M105.01,67.26v4.92h-1.11v-4.92h1.11Z"/><path class="cls-4" d="M108.9,70.1h-1.81v1.17h2.02v.91h-3.13v-4.92h3.03v.91h-1.92v1.02h1.81v.9Z"/><path class="cls-4" d="M114.03,70.3c-.02-.59-.04-1.31-.04-2.02h-.02c-.16,.63-.37,1.33-.55,1.9l-.6,1.92h-.87l-.53-1.9c-.16-.58-.32-1.28-.45-1.93h-.01c-.02,.66-.05,1.42-.08,2.04l-.09,1.87h-1.03l.31-4.92h1.48l.48,1.64c.16,.57,.31,1.18,.42,1.76h.03c.13-.57,.3-1.22,.47-1.77l.52-1.63h1.46l.26,4.92h-1.08l-.08-1.88Z"/><path class="cls-4" d="M116.03,67.33c.29-.05,.88-.1,1.44-.1,.68,0,1.09,.07,1.46,.28,.34,.18,.58,.52,.58,.97s-.26,.83-.81,1.04h0c.56,.16,.98,.59,.98,1.22,0,.45-.21,.8-.51,1.05-.36,.28-.96,.45-1.93,.45-.55,0-.96-.04-1.2-.07v-4.83Zm1.1,1.88h.37c.59,0,.9-.24,.9-.61s-.28-.57-.79-.57c-.25,0-.39,.01-.47,.03v1.15Zm0,2.18c.11,.01,.24,.01,.43,.01,.5,0,.95-.2,.95-.71,0-.49-.45-.69-1-.69h-.38v1.39Z"/><path class="cls-4" d="M120.44,67.33c.36-.06,.88-.1,1.48-.1,.73,0,1.24,.11,1.59,.39,.3,.23,.46,.58,.46,1.04,0,.62-.44,1.05-.87,1.2v.02c.34,.14,.53,.46,.66,.91,.15,.56,.3,1.2,.39,1.39h-1.14c-.07-.15-.2-.54-.34-1.15-.14-.62-.35-.78-.81-.79h-.33v1.93h-1.1v-4.85Zm1.1,2.11h.44c.55,0,.88-.28,.88-.71s-.31-.68-.82-.68c-.27,0-.42,.01-.5,.04v1.35Z"/><path class="cls-4" d="M127.69,70.1h-1.81v1.17h2.02v.91h-3.13v-4.92h3.03v.91h-1.92v1.02h1.81v.9Z"/><path class="cls-4" d="M97.22,75.11c.41-.07,.94-.11,1.5-.11,.94,0,1.55,.18,2.02,.53,.51,.38,.83,.99,.83,1.85,0,.94-.34,1.59-.81,1.99-.52,.43-1.31,.63-2.28,.63-.58,0-.99-.04-1.26-.07v-4.82Zm1.11,4c.09,.02,.25,.02,.39,.02,1.01,0,1.68-.55,1.68-1.72,0-1.02-.6-1.56-1.56-1.56-.24,0-.41,.02-.5,.04v3.22Z"/><path class="cls-4" d="M105.22,77.88h-1.81v1.17h2.02v.91h-3.13v-4.92h3.03v.91h-1.92v1.02h1.81v.9Z"/></g></g><g><path class="cls-4" d="M164.82,28.65c0,1.2-.04,1.74-.34,2.29-.58,1.16-2.14,2.24-4.89,2.24-2.19,0-3.71-.6-4.55-1.74-.52-.76-.68-1.1-.68-2.95v-9.46h3.59v9.08c0,1.28,.4,2.14,1.66,2.14s1.63-.72,1.63-2.07v-9.14h3.57v9.62Z"/><path class="cls-4" d="M174.69,32.94l-2.46-4.83c-.36-.72-.78-1.71-1.08-2.61,.08,.54,.2,1.82,.2,3.53v3.91h-3.39v-13.91h3.43l2.54,4.77c.4,.74,.82,1.72,1.15,2.66-.1-.82-.12-2.2-.12-3.11v-4.31h3.39v13.91h-3.67Z"/><path class="cls-4" d="M181.52,32.94v-13.91h3.65v13.91h-3.65Z"/><path class="cls-4" d="M194.25,32.94h-3.21l-4.73-13.91h3.93l1.76,5.53c.28,.86,.44,1.38,.65,2.61h.02c.22-1.12,.5-2,.74-2.71l1.97-5.43h3.77l-4.91,13.91Z"/><path class="cls-4" d="M200.39,32.94v-13.91h8.08l-.26,2.94h-4.25v2.33h3.47v2.83h-3.47v2.84h4.77v2.97h-8.34Z"/><path class="cls-4" d="M217.73,32.94l-1.46-3.89c-.54-1.44-.86-1.62-1.64-1.62v5.51h-3.57v-13.91h4.79c4.09,0,5.41,1.65,5.41,3.97s-1.26,3.61-2.9,3.89c.48,.14,1.06,.78,1.4,1.5,.46,.94,1.64,3.51,2.09,4.55h-4.13Zm-3.1-10.97v2.83h1.02c1.22,0,1.64-.58,1.64-1.52,0-1-.54-1.32-1.66-1.32h-1Z"/><path class="cls-4" d="M227.53,33.17c-2.1,0-3.73-.52-5.13-1.25l1.25-2.8c1,.58,2.5,1.12,3.91,1.12s1.96-.52,1.96-1.28c0-.62-.44-.88-1.4-1.14l-1.64-.42c-2.01-.53-3.39-1.63-3.39-4.03,0-2.76,2.27-4.59,5.38-4.59,1.94,0,3.73,.5,4.97,1.36l-1.72,2.53c-.94-.62-2.17-.98-3.13-.98s-1.42,.44-1.42,1c0,.46,.32,.92,1.36,1.18l1.42,.36c1.49,.38,3.65,1.06,3.65,3.85,0,3.33-2.47,5.09-6.09,5.09Z"/><path class="cls-4" d="M235.9,32.94v-13.91h3.65v13.91h-3.65Z"/><path class="cls-4" d="M251.63,31.26c-.88,1.06-2,1.68-3.87,1.68h-5.05v-13.91h4.91c.96,0,2.19,.08,3.31,.86,1.58,1.1,2.28,3.01,2.28,5.85,0,2.15-.32,4.03-1.58,5.52Zm-4.25-9.3h-1.1v8h1.2c1,0,1.79-.5,1.79-4.35,0-3.23-.82-3.65-1.89-3.65Z"/><path class="cls-4" d="M261.81,32.94l-.72-2.67h-3.29l-.76,2.67h-3.75l4.47-13.91h3.71l4.21,13.91h-3.87Zm-2.04-7.96c-.14-.62-.24-1.44-.26-1.96-.04,.52-.14,1.28-.38,2.22l-.56,2.27h1.8l-.6-2.53Z"/><path class="cls-4" d="M275.96,31.26c-.88,1.06-1.99,1.68-3.87,1.68h-5.05v-13.91h4.91c.96,0,2.19,.08,3.31,.86,1.58,1.1,2.28,3.01,2.28,5.85,0,2.15-.32,4.03-1.58,5.52Zm-4.25-9.3h-1.1v8h1.19c1,0,1.8-.5,1.8-4.35,0-3.23-.82-3.65-1.9-3.65Z"/><path class="cls-4" d="M290.84,32.94l-.72-2.67h-3.29l-.76,2.67h-3.75l4.47-13.91h3.71l4.21,13.91h-3.87Zm-2.04-7.96c-.14-.62-.24-1.44-.26-1.96-.04,.52-.14,1.28-.38,2.22l-.56,2.27h1.8l-.6-2.53Z"/><path class="cls-4" d="M300.92,33.17c-1.72,0-3.27-.52-4.55-1.92-1.1-1.22-1.6-3.03-1.6-5.01,0-1.74,.28-3.05,.96-4.31,1.18-2.18,3.19-3.15,5.63-3.15,1.42,0,2.91,.4,3.55,1.02l-1.52,2.64c-.62-.48-1.32-.74-2.07-.74-.62,0-1.2,.16-1.56,.54-.68,.7-.9,1.42-.9,3.06,0,2.29,.1,3.39,.68,4.07,.46,.54,1.04,.88,1.78,.88,.9,0,1.62-.22,2.39-.92l1.54,2.44c-.88,.82-2.29,1.42-4.33,1.42Z"/><path class="cls-4" d="M313.38,32.94l-1.46-3.89c-.54-1.44-.86-1.62-1.64-1.62v5.51h-3.57v-13.91h4.79c4.09,0,5.41,1.65,5.41,3.97s-1.25,3.61-2.89,3.89c.48,.14,1.06,.78,1.4,1.5,.46,.94,1.64,3.51,2.09,4.55h-4.13Zm-3.09-10.97v2.83h1.02c1.22,0,1.63-.58,1.63-1.52,0-1-.54-1.32-1.65-1.32h-1Z"/><path class="cls-4" d="M319.33,32.94v-13.91h8.08l-.26,2.94h-4.25v2.33h3.47v2.83h-3.47v2.84h4.77v2.97h-8.34Z"/><path class="cls-4" d="M338.93,31.26c-.88,1.06-2,1.68-3.87,1.68h-5.05v-13.91h4.91c.96,0,2.19,.08,3.31,.86,1.58,1.1,2.27,3.01,2.27,5.85,0,2.15-.32,4.03-1.57,5.52Zm-4.25-9.3h-1.1v8h1.2c1,0,1.8-.5,1.8-4.35,0-3.23-.82-3.65-1.9-3.65Z"/><path class="cls-4" d="M342.65,32.94v-13.91h3.65v13.91h-3.65Z"/><path class="cls-4" d="M358.18,21.98h-3.23v10.95h-3.61v-10.95h-3.23v-2.95h10.5l-.42,2.95Z"/><path class="cls-4" d="M365.72,32.94l-.72-2.67h-3.29l-.76,2.67h-3.75l4.47-13.91h3.71l4.21,13.91h-3.87Zm-2.03-7.96c-.14-.62-.24-1.44-.26-1.96-.04,.52-.14,1.28-.38,2.22l-.56,2.27h1.8l-.6-2.53Z"/><path class="cls-4" d="M379.87,31.26c-.88,1.06-1.99,1.68-3.87,1.68h-5.05v-13.91h4.91c.96,0,2.19,.08,3.31,.86,1.58,1.1,2.27,3.01,2.27,5.85,0,2.15-.32,4.03-1.58,5.52Zm-4.25-9.3h-1.1v8h1.2c1,0,1.79-.5,1.79-4.35,0-3.23-.81-3.65-1.89-3.65Z"/><path class="cls-4" d="M390.06,32.94l-.72-2.67h-3.29l-.75,2.67h-3.75l4.47-13.91h3.71l4.21,13.91h-3.87Zm-2.04-7.96c-.14-.62-.24-1.44-.26-1.96-.04,.52-.14,1.28-.38,2.22l-.56,2.27h1.8l-.6-2.53Z"/></g><rect class="cls-4" x="77.98" y="11.94" width=".6" height="67.81"/><rect class="cls-4" x="141.9" y="11.94" width=".6" height="67.81"/><rect class="cls-4" x="153.01" y="41.15" width="242.54" height=".56"/></g><g><path class="cls-4" d="M107.94,79.97v-.7l.63-.57c1.09-.97,1.61-1.53,1.62-2.1,0-.4-.23-.72-.8-.72-.43,0-.8,.21-1.06,.4l-.33-.82c.36-.28,.95-.51,1.61-.51,1.12,0,1.73,.65,1.73,1.54,0,.83-.59,1.5-1.31,2.13l-.45,.38v.02h1.87v.95h-3.5Z"/><path class="cls-4" d="M115.64,77.48c0,1.52-.61,2.57-1.87,2.57s-1.84-1.15-1.84-2.54c0-1.43,.6-2.56,1.87-2.56s1.84,1.18,1.84,2.53Zm-2.56,.03c0,1.13,.27,1.67,.71,1.67s.69-.56,.69-1.69-.24-1.67-.7-1.67c-.42,0-.71,.53-.71,1.69Z"/><path class="cls-4" d="M116.07,79.97v-.7l.63-.57c1.09-.97,1.61-1.53,1.62-2.1,0-.4-.23-.72-.8-.72-.43,0-.8,.21-1.06,.4l-.33-.82c.36-.28,.95-.51,1.61-.51,1.12,0,1.73,.65,1.73,1.54,0,.83-.59,1.5-1.31,2.13l-.45,.38v.02h1.87v.95h-3.5Z"/><path class="cls-4" d="M120.93,77.42c-.48-.25-.71-.65-.71-1.09,0-.83,.75-1.39,1.74-1.39,1.15,0,1.63,.67,1.63,1.27,0,.43-.23,.84-.72,1.09v.02c.49,.18,.91,.59,.91,1.22,0,.9-.75,1.5-1.9,1.5-1.25,0-1.83-.71-1.83-1.37,0-.59,.34-1,.88-1.24h0Zm1.67,1.2c0-.43-.33-.69-.77-.81-.38,.11-.6,.38-.6,.74,0,.36,.27,.69,.7,.69,.4,0,.68-.27,.68-.61Zm-1.29-2.34c0,.33,.3,.55,.69,.67,.27-.08,.5-.32,.5-.62s-.17-.61-.6-.61c-.39,0-.59,.27-.59,.57Z"/></g></g></g></svg>